<svg width="68" height="101" fill="none" xmlns="http://www.w3.org/2000/svg"><path opacity=".15" d="M28.805 57.413L10.745 67.83c-.947.541-.947 1.42 0 1.962l18.128 10.417c.947.541 2.502.541 3.45 0L50.45 69.792c.947-.541.947-1.42 0-1.962L32.255 57.414c-.947-.542-2.503-.542-3.45 0z" fill="#6B99D1"/><path d="M51.059 12.837v51.476c0 1.082-.744 2.435-1.691 2.976l-17.114 9.876c-.473.27-1.082.406-1.69.406-.61 0-1.218-.135-1.692-.406l-17.18-9.876C10.743 66.75 10 65.395 10 64.313V12.837h41.059z" fill="#C8E2FF"/><path d="M30.563 12.837v64.734c-.609 0-1.217-.135-1.69-.406L11.69 67.289C10.744 66.75 10 65.395 10 64.313V12.837h20.563z" fill="#A5CBFA"/><path d="M28.805 1.406L10.745 11.89c-.947.541-.947 1.42 0 1.962l18.128 10.417c.947.541 2.502.541 3.45 0L50.45 13.852c.947-.541.947-1.42 0-1.962L32.255 1.406c-.947-.541-2.503-.541-3.45 0z" fill="#DCEEFF"/><path d="M33.2 28.192V72.16c0 .744.542 1.015 1.15.677l.204-.135 13.663-7.914c.339-.204.61-.474.812-.88l-1.285-.88-14.205-35.985a2.28 2.28 0 00-.338 1.15z" fill="#031F60"/><path d="M49.368 19.06v-.202c0-.744-.541-1.015-1.15-.677l-.068.068-13.799 7.914a2.055 2.055 0 00-.811.88L47.677 63.23l1.285.744a2.28 2.28 0 00.338-1.15V19.061h.068z" fill="#1E3779"/><path d="M48.15 62.013c0 .338-.136.744-.339 1.15-.203.338-.474.677-.812.88l-13.663 7.846-.068.068V28.192c0-.338.135-.744.338-1.15.203-.338.474-.676.812-.88l13.731-7.913v43.764z" fill="#344593"/><path d="M27.857 28.192V72.16c0 .744-.541 1.014-1.15.676l-.203-.135-13.664-7.914a2.057 2.057 0 01-.812-.88l1.286-.879 14.204-36.053c.203.406.339.812.339 1.217z" fill="#031F60"/><path d="M11.69 19.06v-.202c0-.744.542-1.015 1.15-.677l.068.068 13.731 7.914c.339.203.61.473.812.88L13.314 63.23l-1.285.744c-.203-.406-.338-.812-.338-1.15V19.06z" fill="#1E3779"/><path d="M12.909 62.013c0 .339.135.745.338 1.15.203.339.473.677.812.88l13.663 7.914.068.067V28.192c0-.338-.135-.744-.338-1.15-.203-.338-.474-.676-.812-.879L12.91 18.25v43.764z" fill="#344593"/><path d="M28.805 1.406L10.745 11.89c-.947.541-.947 1.42 0 1.962l18.128 10.417c.947.541 2.502.541 3.45 0L50.45 13.852c.947-.541.947-1.42 0-1.962L32.255 1.406c-.947-.541-2.503-.541-3.45 0z" fill="#DCEEFF"/><path d="M28.805 1.406L10.745 11.89c-.947.541-.947 1.42 0 1.962l18.128 10.417c.947.541 2.502.541 3.45 0L50.45 13.852c.947-.541.947-1.42 0-1.962L32.255 1.406c-.947-.541-2.503-.541-3.45 0z" stroke="#fff" stroke-miterlimit="10"/><path d="M22.312 38.947l.947-.54a.807.807 0 00.338-.61v-5.005c0-.27-.067-.609-.27-.812l-4.194 2.368 3.18 4.6z" fill="#C8E2FF"/><path d="M22.851 31.236l-6.426-3.653c-.135-.067-.406-.067-.609 0l-1.014.61 4.329 6.222 4.261-2.502c-.135-.271-.338-.542-.54-.677z" fill="#A5CBFA"/><path d="M15.411 28.26l6.29 3.653c.474.27.88.947.88 1.488v5.005c0 .541-.406.744-.88.474l-6.29-3.653c-.473-.27-.88-.947-.88-1.488v-5.005c0-.542.407-.745.88-.474z" fill="#DCEEFF"/><path d="M37.124 36.377l-1.082-.609a.807.807 0 01-.339-.609v-1.894c0-.27.068-.608.27-.811l3.315 1.894-2.164 2.029z" fill="#C8E2FF"/><path d="M36.514 31.777l8.05-4.667c.135-.068.405-.068.608 0l1.15.676-7.17 6.494-3.314-1.894c.27-.27.473-.474.676-.609z" fill="#A5CBFA"/><path d="M45.713 27.854l-7.981 4.6c-.474.27-.88.947-.88 1.488v1.894c0 .54.406.744.88.473l7.981-4.6c.474-.27.88-.947.88-1.488v-1.894c0-.54-.406-.811-.88-.473z" fill="#DCEEFF"/><path d="M37.124 45.238l-1.082-.676a.807.807 0 01-.339-.61V42.06c0-.27.068-.609.27-.812l3.315 1.894-2.164 2.097z" fill="#C8E2FF"/><path d="M36.517 40.57l8.049-4.667c.135-.067.406-.067.609 0l1.15.677-7.17 6.493-3.247-1.826c.203-.27.406-.541.609-.676z" fill="#A5CBFA"/><path d="M45.713 36.647l-7.981 4.6c-.474.27-.88.947-.88 1.488v1.894c0 .541.406.744.88.474l7.981-4.6c.474-.27.88-.947.88-1.488V37.12c0-.541-.406-.744-.88-.474z" fill="#DCEEFF"/><path d="M37.124 54.032l-1.082-.61a.807.807 0 01-.339-.608V50.92c0-.27.068-.609.27-.812l3.315 1.894-2.164 2.03z" fill="#C8E2FF"/><path d="M36.517 49.432l8.049-4.667c.135-.068.406-.068.609 0l1.15.676-7.17 6.494-3.247-1.894c.203-.27.406-.474.609-.61z" fill="#A5CBFA"/><path d="M45.713 45.44l-7.981 4.6c-.474.271-.88.947-.88 1.489v1.894c0 .54.406.744.88.473l7.981-4.532c.474-.27.88-.947.88-1.488v-1.894c0-.541-.406-.812-.88-.541z" fill="#DCEEFF"/><path d="M37.124 62.893l-1.082-.677a.807.807 0 01-.339-.608v-1.894c0-.271.068-.61.27-.812l3.315 1.894-2.164 2.097z" fill="#C8E2FF"/><path d="M36.517 58.225l8.049-4.667c.135-.068.406-.068.609 0l1.15.676-7.17 6.494-3.247-1.894c.203-.27.406-.473.609-.609z" fill="#A5CBFA"/><path d="M45.713 54.302l-7.981 4.6c-.474.27-.88.947-.88 1.488v1.894c0 .541.406.744.88.473l7.981-4.6c.474-.27.88-.946.88-1.487v-1.894c0-.542-.406-.744-.88-.474z" fill="#DCEEFF"/><path d="M38.004 33.536l1.082-.61c.068-.067.135 0 .135.069v1.217a.513.513 0 01-.135.27l-1.082.61c-.068.067-.136 0-.136-.068v-1.218c0-.067.068-.203.136-.27zM38.004 42.397l1.082-.609c.068-.067.135 0 .135.068v1.217a.513.513 0 01-.135.27l-1.082.61c-.068.067-.136 0-.136-.068V42.6c0-.068.068-.203.136-.203zM38.004 51.19l1.082-.608c.068-.068.135 0 .135.067v1.218a.514.514 0 01-.135.27l-1.082.61c-.068.067-.136 0-.136-.069v-1.217c0-.135.068-.203.136-.27zM38.004 60.052l1.082-.61c.068-.067.135 0 .135.069v1.217a.513.513 0 01-.135.27l-1.082.542c-.068.067-.136 0-.136-.068v-1.218c0-.067.068-.202.136-.202z" fill="#41E5C9"/><path opacity=".15" d="M19.805 77.413L1.745 87.83c-.947.541-.947 1.42 0 1.962l18.128 10.417c.947.541 2.502.541 3.45 0L41.45 89.792c.947-.541.947-1.42 0-1.962L23.255 77.414c-.947-.542-2.503-.542-3.45 0z" fill="#6B99D1"/><path d="M42.059 32.837v51.476c0 1.082-.744 2.435-1.691 2.976l-17.114 9.876c-.473.27-1.082.406-1.69.406-.61 0-1.218-.135-1.692-.406l-17.18-9.876C1.743 86.75 1 85.395 1 84.313V32.837h41.059z" fill="#C8E2FF"/><path d="M21.563 32.837v64.734c-.609 0-1.217-.135-1.69-.406L2.69 87.289C1.744 86.75 1 85.395 1 84.313V32.837h20.563z" fill="#A5CBFA"/><path d="M19.805 21.406L1.745 31.89c-.947.541-.947 1.42 0 1.962l18.128 10.417c.947.541 2.502.541 3.45 0L41.45 33.852c.947-.541.947-1.42 0-1.962L23.255 21.406c-.947-.541-2.503-.541-3.45 0z" fill="#DCEEFF"/><path d="M24.2 48.192V92.16c0 .744.542 1.015 1.15.677l.204-.135 13.663-7.914c.339-.204.61-.474.812-.88l-1.285-.88-14.205-35.985a2.28 2.28 0 00-.338 1.15z" fill="#031F60"/><path d="M40.368 39.06v-.202c0-.744-.541-1.015-1.15-.677l-.068.068-13.799 7.914a2.055 2.055 0 00-.811.88L38.677 83.23l1.285.744a2.28 2.28 0 00.338-1.15V39.061h.068z" fill="#1E3779"/><path d="M39.15 82.013c0 .338-.136.744-.339 1.15-.203.338-.474.677-.812.88l-13.663 7.846-.068.068V48.192c0-.338.135-.744.338-1.15.203-.338.474-.676.812-.88l13.731-7.913v43.764z" fill="#344593"/><path d="M18.857 48.193V92.16c0 .744-.541 1.014-1.15.676l-.203-.135L3.84 84.787a2.056 2.056 0 01-.812-.88l1.286-.879 14.204-36.053c.203.406.339.812.339 1.218z" fill="#031F60"/><path d="M2.69 39.06v-.202c0-.744.542-1.015 1.15-.677l.068.068 13.731 7.914c.339.203.61.473.812.88L4.314 83.23l-1.285.744c-.203-.406-.338-.812-.338-1.15V39.06z" fill="#1E3779"/><path d="M3.909 82.013c0 .339.135.744.338 1.15.203.338.474.677.812.88l13.663 7.914.068.067V48.192c0-.338-.135-.744-.338-1.15-.203-.338-.474-.676-.812-.879L3.91 38.25v43.764z" fill="#344593"/><path d="M19.805 21.406L1.745 31.89c-.947.541-.947 1.42 0 1.962l18.128 10.417c.947.541 2.502.541 3.45 0L41.45 33.852c.947-.541.947-1.42 0-1.962L23.255 21.406c-.947-.541-2.503-.541-3.45 0z" fill="#DCEEFF"/><path d="M19.805 21.406L1.745 31.89c-.947.541-.947 1.42 0 1.962l18.128 10.417c.947.541 2.502.541 3.45 0L41.45 33.852c.947-.541.947-1.42 0-1.962L23.255 21.406c-.947-.541-2.503-.541-3.45 0z" stroke="#fff" stroke-miterlimit="10"/><path d="M13.312 58.947l.947-.54a.807.807 0 00.338-.61v-5.005c0-.27-.067-.609-.27-.812l-4.194 2.368 3.18 4.6z" fill="#C8E2FF"/><path d="M13.851 51.236l-6.426-3.653c-.135-.067-.406-.067-.608 0l-1.015.61 4.329 6.222 4.261-2.502c-.135-.271-.338-.542-.54-.677z" fill="#A5CBFA"/><path d="M6.411 48.26l6.29 3.653c.474.27.88.947.88 1.488v5.005c0 .541-.406.744-.88.474l-6.29-3.653c-.473-.27-.88-.947-.88-1.488v-5.005c0-.542.407-.745.88-.474z" fill="#DCEEFF"/><path d="M28.124 56.377l-1.082-.609a.807.807 0 01-.339-.609v-1.894c0-.27.068-.608.27-.811l3.315 1.894-2.164 2.029z" fill="#C8E2FF"/><path d="M27.514 51.777l8.05-4.667c.135-.068.405-.068.608 0l1.15.676-7.17 6.494-3.314-1.894c.27-.27.473-.474.676-.609z" fill="#A5CBFA"/><path d="M36.713 47.854l-7.981 4.6c-.474.27-.88.947-.88 1.488v1.894c0 .54.406.744.88.473l7.981-4.6c.474-.27.88-.947.88-1.488v-1.894c0-.54-.406-.811-.88-.473z" fill="#DCEEFF"/><path d="M28.124 65.238l-1.082-.677a.807.807 0 01-.339-.608v-1.894c0-.27.068-.609.27-.812l3.315 1.894-2.164 2.097z" fill="#C8E2FF"/><path d="M27.517 60.57l8.049-4.667c.135-.067.406-.067.609 0l1.15.677-7.17 6.493-3.247-1.826c.203-.27.406-.541.609-.676z" fill="#A5CBFA"/><path d="M36.713 56.647l-7.981 4.6c-.474.27-.88.947-.88 1.488v1.894c0 .541.406.744.88.474l7.981-4.6c.474-.27.88-.947.88-1.488V57.12c0-.541-.406-.744-.88-.474z" fill="#DCEEFF"/><path d="M28.124 74.032l-1.082-.61a.807.807 0 01-.339-.608V70.92c0-.27.068-.609.27-.812l3.315 1.894-2.164 2.03z" fill="#C8E2FF"/><path d="M27.517 69.432l8.049-4.667c.135-.068.406-.068.609 0l1.15.676-7.17 6.494-3.247-1.894c.203-.27.406-.474.609-.61z" fill="#A5CBFA"/><path d="M36.713 65.44l-7.981 4.6c-.474.271-.88.947-.88 1.489v1.894c0 .54.406.744.88.473l7.981-4.532c.474-.27.88-.947.88-1.488v-1.894c0-.541-.406-.812-.88-.541z" fill="#DCEEFF"/><path d="M28.124 82.893l-1.082-.677a.807.807 0 01-.339-.608v-1.894c0-.271.068-.61.27-.812l3.315 1.894-2.164 2.097z" fill="#C8E2FF"/><path d="M27.517 78.225l8.049-4.667c.135-.068.406-.068.609 0l1.15.676-7.17 6.494-3.247-1.894c.203-.27.406-.473.609-.609z" fill="#A5CBFA"/><path d="M36.713 74.302l-7.981 4.6c-.474.27-.88.947-.88 1.488v1.894c0 .541.406.744.88.473l7.981-4.6c.474-.27.88-.946.88-1.487v-1.894c0-.541-.406-.744-.88-.474z" fill="#DCEEFF"/><path d="M29.004 53.536l1.082-.61c.068-.067.135 0 .135.069v1.217a.513.513 0 01-.135.27l-1.082.61c-.068.067-.136 0-.136-.068v-1.218c0-.067.068-.203.136-.27zM29.004 62.397l1.082-.609c.068-.067.135 0 .135.068v1.217a.513.513 0 01-.135.27l-1.082.61c-.068.067-.136 0-.136-.068V62.6c0-.068.068-.203.136-.203zM29.004 71.19l1.082-.608c.068-.068.135 0 .135.067v1.218a.514.514 0 01-.135.27l-1.082.61c-.068.067-.136 0-.136-.069v-1.217c0-.135.068-.203.136-.27zM29.004 80.052l1.082-.61c.068-.067.135 0 .135.069v1.217a.513.513 0 01-.135.27l-1.082.542c-.068.067-.136 0-.136-.068v-1.218c0-.067.068-.202.136-.202z" fill="#41E5C9"/><path d="M66.648 47.54c.129 1.032 1.41 5.416 1.154 7.028-.257 1.547-4.614 4.384-4.614 4.384l-.576-2.708 1.858-1.805c.32-.322.513-.838.448-1.29l-.576-3.675 2.306-1.934z" fill="#FFA8A7"/><path d="M64.406 52.892l-1.794-8.06c-.256-3.03 2.499-2.708 3.14-1.676.64 1.032 1.922 7.93 1.986 8.575.256 1.547.256 2.321.128 2.966s-1.666 2.45-4.613 4.255l-.577-2.708 1.73-3.352z" fill="#6A89CE"/><path d="M63.957 90.996s.064.452.192 1.032c.128.451.128 1.031-.385 1.225-.512.193-1.089.129-1.41-.323-.384-.58-.64-1.225-1.217-1.805-.576-.516-1.281-1.096-1.473-1.934-.193-.774-.064-1.225.448-1.29.641-.064 1.666.452 2.179.839.32.322 1.666 2.256 1.666 2.256zM57.036 95.38s.064.58.064 1.097c.064.45.193 1.225.064 1.547-.128.322-.897.58-1.858.58-.576 0-1.73.452-2.114.838-.577.516-1.923.71-2.691.452-.77-.258-1.666-.58-1.795-.967-.128-.387.257-.516 2.179-1.419 1.922-.902 3.332-1.483 4.037-2.514l2.114.386z" fill="#2D2979"/><path d="M64.406 80.81c-.32-2.515-.833-3.998-.833-3.998s.256-3.482.385-6.706c.128-3.546.32-7.994.384-8.833l-11.405 2.58s.704 13.732.833 15.538c.128 1.805.256 4.32.448 6.576.256 2.902.513 9.413.513 9.413 1.217.71 2.306.452 2.306.452s.962-8.06 1.154-10.123c.192-2.772-.513-5.158-.513-5.158s.32-3.546.577-6.512c.256-2.579.576-4.19.576-5.415l.257-.13s.256 5.094.384 6.835c.128 1.805.385 3.546.897 6.834.449 2.902 1.474 8.898 1.474 8.898 1.217.709 2.05.064 2.05.064s.834-7.801.513-10.316z" fill="#C4D9FF"/><path d="M58.894 68.495s2.563-1.354 3.845-2.58c0 0-1.217 1.806-2.755 2.644 0 0-.577 6.319-.577 6.19l-.32-6.19-.193-.064z" fill="#AACAF9"/><path d="M62.74 42.447c-.897.064-1.538.258-1.602 0-.064-.194-.192-1.354-.192-1.354.128-.258.192-.516.192-.516 1.09-.645 1.858-1.805 1.986-3.224a4.272 4.272 0 00-3.78-4.706c-2.178-.258-3.845 1.354-4.293 3.481-.256 1.032-.449 3.16.064 5.03.256 1.031.513 1.289.961 1.418.128.064 1.154.129 1.474.129 0 0 .128.645.192 1.096.064.451.064.645-.769 1.16-.833.516 1.282 1.548 2.627 1.483 1.346-.129 2.884-.902 3.332-1.805.449-1.032.385-2.257-.192-2.192z" fill="#FFA8A7"/><path d="M62.74 42.447c-.897.064-1.538.258-1.602 0-.064-.194-.192-1.354-.192-1.354.128-.258.192-.516.192-.516a4.495 4.495 0 001.025-.902l-2.883.967-.833-.194-.32-.193-.193-.387c0 .064-.128 1.354-.384 1.74-.257.452-1.025.903-1.41.968h.064c.128.064 1.154.129 1.474.129 0 0 .128.645.192 1.096.064.387.064.58-.577 1.032l1.154.902 3.524-.064c.064-.065.192-.13.256-.194l1.025-1.612c.064-.773-.064-1.418-.512-1.418z" fill="#F28F8F"/><path d="M61.585 40.706c1.09-.967 1.41-1.934 1.538-3.353a4.272 4.272 0 00-3.78-4.706c-1.538-.13-2.756.516-3.525 1.676 0 0 .129.323.385.58 0 0-.192.516.128.968.256.258.256.58.256 1.031 0 .387-.064 1.096 0 1.548.064.644.77.773.77.773s.063-1.418.127-1.547c.257-.516 1.154-.645 1.474.064.257.58.128 1.16-.064 1.741a.67.67 0 01-1.025.387c0 .258-.128 1.225.833 1.547.897.258 1.794 0 2.243-.258.256-.128.64-.45.64-.45z" fill="#543354"/><path d="M56.203 34.903s-1.089.13-2.114-1.031c-1.025-1.16-.449-2.257.769-1.741 1.217.516 3.268.193 4.293.129 1.025-.129 3.78.451 3.46 2.708l-6.407-.065z" fill="#543354"/><path d="M61.522 42.576c.256.58-.384 1.354-1.986 1.87-1.602.516-1.794-.13-1.794-.13s-2.371 1.097-3.204 1.677c-.961.71-1.41 2.708-1.538 6.06-.128 3.87-.449 11.606-.32 12.573 0 0 1.089.645 2.114-.838.577.967 1.666 1.805 3.076 2.192 2.306.71 5.51-.193 7.048-3.224 0-3.417-.961-6.254-.449-8.252 1.282-4.513 1.923-6.319 1.282-9.349-.513-2.45-1.217-2.772-2.179-2.772-.897 0-2.05.193-2.05.193z" fill="#7FA8E6"/><path d="M61.01 41.867s.129-.065.32 0c.193.129.642.58.642.58s.128.967-1.026 1.676c-1.153.71-2.563 1.096-3.972.387 0 0 .256-.903.384-1.096.064-.194.256-.194.256-.194s.385.452 1.73 0c1.41-.45 1.666-1.16 1.666-1.16v-.194z" fill="#6A89CE"/><path d="M49.284 55.858c1.922.516 2.37-.71 2.627-1.741.64-2.45.96-4.642 1.41-6.06.512-1.613 1.089-1.87 1.922-2.193.897-.387 1.73.387 1.41 2.515-.385 2.45-.834 4.19-1.73 7.092-.257.774-.77 2.128-1.602 2.772-.962.838-2.5.774-4.742.194-.961-.258-2.05-.838-3.845-1.677-.512-.258-.897-.386-1.794-.838-.96-.451-1.922-1.16-2.435-1.87-.512-.709-.576-1.031-.448-1.225.128-.193.32-.129.64.13.257.322.641.837 1.41 1.289 0 0-.576-.645-.96-1.032a4.014 4.014 0 01-.706-1.225c-.192-.387.192-.967.449-.709.256.322.384.58.897 1.225.448.516.897.838.897.838s-.513-.709-.833-1.354c-.32-.645-.32-.967-.32-1.225 0-.193.32-.451.576-.064.257.387.449.967 1.025 1.612.449.45.833.709.833.58 0-.13-.256-.387-.448-.903-.128-.516 0-1.096.32-1.16.32-.065.257-.065.449.451.256.516.576.838.897 1.612.256.645.384.902.769 1.354.512.58 1.538 1.096 3.332 1.612z" fill="#FFA8A7"/><path d="M48.066 55.406l-1.09-.515c-.64.257-1.153 1.354-.96 2.514l1.28.516.77-2.515z" fill="#F5FBFB"/><path d="M55.37 45.413c-1.281.129-1.794.516-2.435 3.288-.576 2.772-.96 5.48-1.473 6.06-.449.58-.705 1.483-3.589.387 0 0-1.345.516-1.217 2.773 0 0 1.538.58 3.268.967 1.73.322 3.332.193 4.421-1.999 1.025-2.192 2.178-6.512 2.37-8.253.257-1.74-.192-3.352-1.345-3.223z" fill="#6A89CE"/><path opacity=".15" d="M49.54 93.189l5.446-3.16c3.717-2.127 8.843-2.643 11.47-1.16 2.627 1.547 1.73 4.513-1.987 6.64l-5.446 3.16c-3.716 2.128-8.843 2.643-11.47 1.16-2.563-1.547-1.73-4.513 1.987-6.64z" fill="#6B99D1"/></svg>