<svg width="76" height="119" fill="none" xmlns="http://www.w3.org/2000/svg"><path opacity=".15" d="M62.39 92.404l-29.542 17.049c-.375.239-.886.341-1.363.341-.511 0-.988-.102-1.363-.341L.615 92.404c-.375-.204-.58-.511-.58-.784 0-.204.103-.409.307-.614.068-.068.17-.136.273-.204l29.541-17.049c.75-.443 1.977-.443 2.76 0l29.508 17.049c.75.443.75 1.16-.034 1.602zM14.686 114.772l-2.42-1.398c-1.635-.955-3.884-1.159-5.042-.511-1.159.647-.75 1.977.886 2.898l2.419 1.398c1.635.955 3.884 1.159 5.043.511 1.124-.647.715-1.943-.886-2.898z" fill="#6B99D1"/><path d="M62.389 89.95l-29.542 17.048c-.375.238-.886.341-1.363.341-.511 0-.988-.103-1.363-.307L.579 89.983C.204 89.745 0 89.472 0 89.2c0-.307.204-.58.58-.784l3.986-2.319 25.52-14.73c.75-.443 1.977-.443 2.76 0l29.508 17.049c.818.375.818 1.09.035 1.534z" fill="#DCEEFF"/><path d="M31.52 101.577v5.728c-.512 0-.989-.102-1.364-.307L.615 89.949c-.375-.238-.58-.511-.58-.784v-4.978c0-.205.103-.41.307-.614l4.26 2.455 26.917 15.549z" fill="#A5CBFA"/><path d="M31.516 101.577v5.728c.511 0 .988-.102 1.363-.307l29.542-17.049c.375-.238.579-.511.579-.784v-4.978c0-.205-.102-.41-.307-.614l-4.259 2.455-26.918 15.549z" fill="#C8E2FF"/><path d="M62.39 84.971L32.848 102.02c-.375.239-.886.341-1.363.341-.511 0-.988-.102-1.363-.341L.615 84.971c-.375-.204-.58-.511-.58-.784 0-.204.103-.41.307-.614.068-.068.17-.136.273-.204L30.156 66.32c.75-.443 1.977-.443 2.76 0L62.424 83.37c.75.477.75 1.193-.034 1.602z" fill="#DCEEFF"/><path opacity=".15" d="M14.686 114.772l-2.42-1.398c-1.635-.955-3.884-1.159-5.042-.511-1.159.647-.75 1.977.886 2.898l2.419 1.398c1.635.955 3.884 1.159 5.043.511 1.124-.647.715-1.943-.886-2.898zM48.488 112.556l2.419-1.398c1.635-.955 3.884-1.159 5.043-.511 1.158.647.75 1.977-.886 2.898l-2.42 1.398c-1.635.955-3.884 1.159-5.042.511-1.125-.648-.75-1.943.886-2.898z" fill="#6B99D1"/><path d="M31.52 66.355c.442 0 .885.102 1.192.273l29.507 17.048c.239.137.41.341.41.512 0 .17-.137.34-.41.511l-29.541 17.049c-.307.17-.75.273-1.193.273-.477 0-.886-.103-1.192-.273L.785 84.699c-.273-.136-.409-.307-.409-.511 0-.103.068-.239.205-.341.068-.068.136-.102.204-.137l29.542-17.048c.272-.205.715-.307 1.192-.307zm0-.341c-.512 0-.989.102-1.364.34L.615 83.405c-.103.068-.205.136-.273.204-.204.17-.307.375-.307.614 0 .307.205.58.58.784l29.507 17.049c.375.238.886.341 1.363.341.511 0 .988-.103 1.363-.341L62.39 85.006c.75-.443.75-1.16 0-1.603L32.882 66.355a2.987 2.987 0 00-1.363-.341z" fill="#fff"/><path d="M30.598 69.832L6.611 83.676c-.512.307-.512.75 0 1.057l23.987 13.843c.511.307 1.33.307 1.84 0l23.988-13.843c.511-.307.511-.75 0-1.057L32.438 69.832c-.51-.307-1.329-.307-1.84 0z" fill="#344593"/><path d="M56.424 83.675L32.436 69.832c-.238-.136-.58-.205-.92-.205v.921l24.737 14.287.17-.102c.478-.307.478-.785 0-1.058z" fill="#1E3779"/><path d="M31.518 69.594c-.34 0-.647.068-.92.204L6.611 83.642c-.512.306-.512.75 0 1.057l.17.102 24.737-14.287v-.92z" fill="#031F60"/><path d="M31.688 77.845l7.088-4.092c.102-.068.102-.17 0-.239l-7.088-4.091c-.102-.069-.272-.069-.409 0l-7.087 4.091c-.102.069-.102.17 0 .24l7.087 4.09c.137.069.307.069.41 0z" stroke="#fff" stroke-miterlimit="10" stroke-linecap="round"/><path d="M31.516 75.151v16.435c.41 0 .852-.102 1.159-.273l15.197-8.797c.647-.375 1.158-1.262 1.158-2.012v-5.353H31.516z" fill="#6CFFE6"/><path d="M13.971 75.151v5.353c0 .75.511 1.637 1.159 2.012l15.23 8.797c.307.17.75.273 1.159.273V75.151H13.971z" fill="#41E5C9"/><path d="M30.328 85.005l-15.879-9.172c-.647-.375-.647-.99 0-1.33l15.912-9.206c.648-.375 1.67-.375 2.317 0l15.879 9.172c.647.375.647.989 0 1.33L32.678 84.97c-.647.409-1.703.409-2.35.034z" fill="#ABFFEF"/><path d="M17.718 74.708l13.017-7.536c.442-.239 1.124-.239 1.567 0l13.016 7.536c.443.238.443.647 0 .886L32.302 83.13c-.443.238-1.125.238-1.567 0l-13.017-7.536c-.408-.239-.408-.648 0-.886z" stroke="#fff" stroke-miterlimit="10" stroke-linecap="round"/><path d="M31.895 69.082l10.256 5.865c.204.136.204.34 0 .443l-10.256 5.864c-.205.137-.545.137-.784 0L20.957 75.39c-.204-.137-.204-.341 0-.444l10.154-5.864c.205-.137.58-.137.784 0z" stroke="#fff" stroke-miterlimit="10" stroke-linecap="round"/><path d="M18.025 80.948c0-.341-.238-.785-.545-.955-.17-.102-.307-.102-.41-.034l-2.248 1.295c-.443.273-.818.921-.818 1.433v3.102c0 .103.069.24.239.307.306.17.784.17 1.09 0 .136-.102.239-.204.239-.307v-3.034c0-.068.034-.137.102-.17l2.215-1.262c.068-.103.136-.205.136-.375z" fill="url(#paint0_linear)"/><path d="M21.397 82.891c0-.34-.238-.784-.545-.955-.17-.102-.307-.102-.409-.034l-2.249 1.296c-.443.273-.817.92-.817 1.432v3.103c0 .102.068.239.238.307.307.17.784.17 1.09 0 .137-.103.239-.205.239-.307v-3.035c0-.068.034-.136.102-.17l2.215-1.262a.546.546 0 00.136-.375z" fill="url(#paint1_linear)"/><path d="M24.738 84.869c0-.341-.238-.784-.545-.955-.17-.102-.306-.102-.409-.034l-2.248 1.296c-.443.272-.818.92-.818 1.432v3.103c0 .102.068.238.238.307.307.17.784.17 1.09 0 .137-.103.24-.205.24-.307v-3.035c0-.068.033-.136.101-.17l2.215-1.262c.102-.102.136-.205.136-.375z" fill="url(#paint2_linear)"/><path d="M28.11 86.812c0-.34-.238-.784-.545-.954-.17-.103-.306-.103-.409-.035l-2.248 1.296c-.443.273-.818.92-.818 1.432v3.103c0 .102.068.239.238.307.307.17.784.17 1.09 0 .137-.102.24-.205.24-.307v-3.035c0-.068.033-.136.101-.17l2.215-1.262c.102-.068.137-.204.137-.375z" fill="url(#paint3_linear)"/><path d="M45.013 80.948c0-.341.239-.785.545-.955.17-.102.307-.102.41-.034l2.248 1.295c.443.273.818.921.818 1.433v3.102c0 .103-.068.24-.239.307-.306.17-.783.17-1.09 0-.136-.102-.238-.204-.238-.307v-3.034a.188.188 0 00-.103-.17l-2.214-1.262c-.069-.103-.137-.205-.137-.375z" fill="url(#paint4_linear)"/><path d="M41.639 82.891c0-.34.238-.784.545-.955.17-.102.307-.102.409-.034l2.249 1.296c.443.273.818.92.818 1.432v3.103c0 .102-.069.239-.24.307-.306.17-.783.17-1.09 0-.136-.103-.238-.205-.238-.307v-3.035a.187.187 0 00-.102-.17l-2.215-1.262a.545.545 0 01-.136-.375z" fill="url(#paint5_linear)"/><path d="M38.267 84.869c0-.341.238-.785.545-.955.17-.102.307-.102.409-.034l2.249 1.296c.443.272.817.92.817 1.432v3.102c0 .103-.068.24-.238.307-.307.17-.784.17-1.09 0-.137-.102-.239-.204-.239-.306v-3.035a.188.188 0 00-.102-.17l-2.215-1.262c-.068-.103-.136-.205-.136-.375z" fill="url(#paint6_linear)"/><path d="M34.892 86.812c0-.34.239-.784.545-.955.17-.102.307-.102.41-.034l2.248 1.296c.443.273.818.92.818 1.432v3.103c0 .102-.068.239-.238.307-.307.17-.784.17-1.09 0-.137-.102-.24-.205-.24-.307v-3.035a.188.188 0 00-.102-.17l-2.214-1.262a.546.546 0 01-.137-.375z" fill="url(#paint7_linear)"/><path d="M13.761 46.64l9.344-5.342c-.878-.494-1.694-1.266-2.383-2.162a9.395 9.395 0 01-1.537-2.995l-9.343 5.342c.313 1.05.846 2.1 1.536 2.995.69.896 1.474 1.668 2.383 2.162z" fill="#98A4E0"/><path d="M13.761 46.64l9.344-5.342c-.878-.494-1.694-1.266-2.383-2.162a9.395 9.395 0 01-1.537-2.995l-9.343 5.342c.313 1.05.846 2.1 1.536 2.995.69.896 1.474 1.668 2.383 2.162z" fill="#98A4E0"/><path d="M20.095 31.386l-9.344 5.372c-.188.093-.345.247-.502.402-.47.494-.72 1.266-.72 2.285 0 .68.124 1.358.313 2.069l9.343-5.342c-.22-.71-.345-1.39-.313-2.07 0-.987.282-1.76.721-2.284.157-.186.314-.309.502-.433z" fill="#98A4E0"/><path d="M9.841 41.483l9.344-5.342c-.031-.124-.063-.247-.094-.34l-9.344 5.342c.032.093.063.216.094.34z" fill="#98A4E0"/><path d="M9.748 41.143l9.343-5.342a6.475 6.475 0 01-.22-1.698c0-.988.283-1.76.722-2.285.157-.155.314-.31.502-.402l-9.344 5.342c-.188.093-.345.247-.502.402-.47.494-.72 1.266-.72 2.285 0 .525.062 1.111.219 1.698z" fill="#98A4E0"/><path d="M19.248 29.934l-9.344 5.373c.251-.154.533-.247.816-.309.783-.154 1.693 0 2.696.494l9.344-5.372c-1.004-.495-1.913-.649-2.697-.495a3.693 3.693 0 00-.815.31z" fill="#C6D5FA"/><path d="M13.416 35.492l9.343-5.373h-.03l-9.313 5.373c0-.03 0-.03 0 0z" fill="#C6D5FA"/><path d="M13.416 35.462l9.344-5.343c-1.004-.494-1.913-.648-2.697-.494a2.347 2.347 0 00-.815.31l-9.344 5.372c.251-.154.533-.247.816-.309.783-.154 1.693 0 2.696.464zM14.326 37.13l9.343-5.343c.063-.03.126-.123.157-.247.188-.803.596-1.39 1.129-1.698l-9.344 5.342c-.564.309-.972.895-1.129 1.698-.031.124-.094.216-.156.247z" fill="#C6D5FA"/><path d="M14.326 37.13l9.343-5.343c.063-.03.126-.123.157-.247.188-.803.596-1.39 1.129-1.698l-9.344 5.342c-.564.309-.972.895-1.129 1.698-.031.124-.094.216-.156.247z" fill="#C6D5FA"/><path d="M24.108 28.39l-9.344 5.342c.126-.092.282-.154.44-.185.94-.34 2.131-.154 3.448.587.47.278.94.617 1.38.988l9.344-5.342c-.44-.37-.91-.71-1.38-.988-1.317-.741-2.508-.896-3.45-.587-.156.031-.313.124-.438.185z" fill="#C6D5FA"/><path d="M20.032 35.122l9.343-5.342c-.439-.37-.909-.71-1.38-.988l-.376-.186-9.343 5.312.376.185c.47.278.94.617 1.38 1.019zM18.276 33.918l9.344-5.342c-1.16-.587-2.227-.68-3.073-.37-.157.06-.282.123-.439.184l-9.344 5.342c.126-.092.282-.154.44-.185.846-.309 1.912-.185 3.072.37z" fill="#C6D5FA"/><path d="M38.28 60.597l9.344-5.342-24.52-13.957-9.343 5.342 24.52 13.957zM21.035 37.129l9.344-5.342c.125-.062.188-.216.188-.401V31.2c0-1.698.47-3.026 1.254-3.89.251-.278.533-.525.878-.71l-9.344 5.341a3.835 3.835 0 00-.878.71c-.783.865-1.254 2.193-1.254 3.891v.186c0 .185-.062.34-.188.401z" fill="#98A4E0"/><path d="M21.035 37.129l9.344-5.342c.125-.062.188-.216.188-.401V31.2c0-1.698.47-3.026 1.254-3.89.251-.278.533-.525.878-.71l-9.344 5.341a3.835 3.835 0 00-.878.71c-.783.865-1.254 2.193-1.254 3.891v.186c0 .185-.062.34-.188.401zM42.67 61.03l9.344-5.343a3.45 3.45 0 01-1.975.402c-.721-.062-1.537-.34-2.383-.803l-9.344 5.342c.846.494 1.662.741 2.383.803a3.506 3.506 0 001.975-.402z" fill="#98A4E0"/><path d="M42.67 61.03l9.343-5.343a3.45 3.45 0 01-1.975.402 5.727 5.727 0 01-1.975-.587l-9.344 5.342c.69.34 1.348.525 1.975.587a3.505 3.505 0 001.976-.401zM38.688 60.813l9.344-5.342c-.126-.062-.282-.154-.408-.216l-9.344 5.342c.157.093.282.154.408.216z" fill="#98A4E0"/><path d="M14.576 43.397V45.898s0 .031.032.031c0 0 .031 0 .031.031l.032.031 5.048 2.872c.031 0 .062.03.062.03h.032c.031 0 .031 0 .063.032h.376c.031 0 .031 0 .063-.031h.03c.032 0 .064-.031.064-.031l5.079-2.872c.094-.062.157-.123.157-.185v-2.409c0-.061-.032-.154-.126-.185l-5.048-2.903a.891.891 0 00-.69 0l-5.079 2.872c-.094.062-.126.124-.126.216zm0 0c0 .031 0 .031 0 0 0 .031 0 .031 0 0zm0 .031s0 .031 0 0c0 .031 0 0 0 0zm11.037.093c0-.031 0-.031 0 0 0-.031 0-.031 0 0z" fill="#DAE8FD"/><path d="M14.576 43.366v2.409c0 .062.063.154.126.185v-2.408c-.094-.031-.126-.093-.126-.186z" fill="#DAE8FD"/><path d="M14.576 43.46v2.408a.243.243 0 00.126.123v-2.408c-.063-.031-.094-.093-.126-.124z" fill="#DAE8FD"/><path d="M25.645 45.775v-2.409c0 .062-.063.155-.157.186v2.408c.126-.03.157-.093.157-.185z" fill="#C6D5FA"/><path d="M25.52 43.583v2.408c.094-.062.157-.123.157-.185v-2.409a.413.413 0 01-.157.186z" fill="#C6D5FA"/><path d="M14.702 43.582v2.409l5.048 2.871v-2.408l-5.048-2.872z" fill="#DAE8FD"/><path d="M20.44 46.454v2.408l5.08-2.871v-2.409l-5.08 2.872z" fill="#C6D5FA"/><path d="M19.75 46.454v2.409a.64.64 0 00.345.092v-2.408a.64.64 0 01-.345-.093z" fill="#D4E2FC"/><path d="M20.095 46.547v2.408a.64.64 0 00.345-.092v-2.409a.64.64 0 01-.345.093z" fill="#CDDCFB"/><path d="M14.702 43.181c-.188.093-.188.278 0 .402l5.048 2.871a.891.891 0 00.69 0l5.08-2.871c.187-.093.187-.278 0-.402L20.47 40.31a.891.891 0 00-.69 0l-5.08 2.872z" fill="#98A4E0"/><path d="M14.764 45.806l4.923 2.78v-1.854l-4.923-2.81v1.884z" fill="#3E78A9"/><path d="M18.841 46.547l.69.401v.525l-.69-.37v-.556z" fill="#EFF6FE"/><path d="M16.364 45.682l-1.474-.834v-.524l1.474.833v.525z" fill="#67FDE5"/><path d="M18.559 46.918l-1.85-1.05v-.525l1.85 1.05v.525z" fill="#EFF6FE"/><path d="M17.148 46.979l.376.185v-.525l-.377-.216v.556z" fill="#67FDE5"/><path d="M14.89 45.682l.376.216v-.525l-.376-.216v.525zM15.517 45.497l1.38.803v.525l-1.38-.773v-.555zM17.775 46.794l1.756.988v.525l-1.756-.988v-.525z" fill="#EFF6FE"/><path d="M14.576 40.649V43.15s0 .03.032.03c0 0 .031 0 .031.032l.032.03 5.048 2.872c.031 0 .062.031.062.031h.032c.031 0 .031 0 .063.031h.376c.031 0 .031 0 .063-.03h.03c.032 0 .064-.032.064-.032l5.079-2.871c.094-.062.157-.124.157-.186V40.65c0-.062-.032-.155-.126-.185l-5.048-2.872a.891.891 0 00-.69 0l-5.079 2.872c-.094.061-.126.123-.126.185zm11.037.123s0-.03 0 0c0-.03 0 0 0 0z" fill="#DAE8FD"/><path d="M14.576 40.649v2.408c0 .062.063.155.126.186v-2.409c-.094-.03-.126-.092-.126-.185z" fill="#DAE8FD"/><path d="M14.576 40.71v2.409a.243.243 0 00.126.123v-2.408a.243.243 0 01-.126-.124z" fill="#DAE8FD"/><path d="M25.645 43.057V40.65c0 .062-.063.154-.157.185v2.409c.126-.031.157-.093.157-.186z" fill="#C6D5FA"/><path d="M25.52 40.865v2.408c.094-.061.157-.123.157-.185V40.68a.413.413 0 01-.157.185z" fill="#C6D5FA"/><path d="M14.702 40.865v2.408l5.048 2.872v-2.409l-5.048-2.871z" fill="#DAE8FD"/><path d="M20.44 43.736v2.409l5.08-2.872v-2.408l-5.08 2.871z" fill="#C6D5FA"/><path d="M19.75 43.737v2.408a.64.64 0 00.345.093v-2.409a.64.64 0 01-.345-.092z" fill="#D4E2FC"/><path d="M20.095 43.83v2.408a.64.64 0 00.345-.093v-2.408a.64.64 0 01-.345.092z" fill="#CDDCFB"/><path d="M14.702 40.464c-.188.092-.188.277 0 .401l5.048 2.872a.891.891 0 00.69 0l5.08-2.872c.187-.093.187-.278 0-.401l-5.049-2.872a.891.891 0 00-.69 0l-5.08 2.872z" fill="#ECF5FE"/><path d="M14.764 43.088l4.892 2.78v-1.884l-4.892-2.78v1.884z" fill="#3E78A9"/><path d="M18.841 43.83l.659.4v.526l-.659-.402v-.524z" fill="#EFF6FE"/><path d="M16.364 42.965l-1.474-.834v-.556l1.474.865v.525z" fill="#67FDE5"/><path d="M18.559 44.2l-1.85-1.05v-.525l1.85 1.05v.525z" fill="#EFF6FE"/><path d="M17.148 44.23l.344.217v-.525l-.345-.216v.525z" fill="#67FDE5"/><path d="M14.89 42.965l.376.216v-.556l-.376-.185v.525zM15.517 42.78l1.38.802v.525l-1.38-.772v-.556zM17.774 44.077l1.725.988v.525l-1.724-.988v-.525z" fill="#EFF6FE"/><path d="M23.952 40.68c-.032.061-.094.092-.157.123l-3.23 1.822c-.25.154-.69.154-.94 0l-3.23-1.822c-.063-.03-.125-.092-.157-.123-.094-.124-.03-.278.157-.402l3.261-1.822c.25-.154.69-.154.94 0l3.23 1.822c.188.124.22.278.126.402z" fill="#C6D5FA"/><path d="M23.952 40.68c-.032.061-.094.092-.157.123l-3.23 1.822c-.25.154-.69.154-.94 0l-3.23-1.822a.684.684 0 01-.157-.123c.032-.062.095-.093.157-.124l3.23-1.822c.25-.154.69-.154.94 0l3.23 1.822c.094.031.125.093.157.124z" fill="#67FDE5"/><path d="M21.098 46.948v2.501s0 .031.032.031c0 0 .031 0 .031.031l.031.03 5.049 2.873c.031 0 .062.03.062.03h.032c.031 0 .031 0 .062.031h.377c.031 0 .031 0 .062-.03h.032c.031 0 .062-.031.062-.031l5.111-2.841c.094-.062.157-.124.157-.185v-2.409c0-.062-.031-.154-.125-.185l-5.049-2.872a.891.891 0 00-.69 0l-5.079 2.872c-.094.03-.157.092-.157.154zm.063.154s.031 0 0 0c.031 0 0 0 0 0zm.031 0c0 .031.032.031 0 0 .032.031 0 .031 0 0zm10.975-.061c.031 0 .031 0 0 0 .031 0 .031 0 0 0zm0 .03c0-.03 0-.03 0 0 0-.03 0-.03 0 0z" fill="#DAE8FD"/><path d="M21.098 46.948v2.409c0 .062.063.154.126.185v-2.409c-.063-.03-.126-.092-.126-.185z" fill="#DAE8FD"/><path d="M21.098 46.948V49.42 47.01c.032 0 0-.03 0-.062zM21.13 47.01v2.408a.243.243 0 00.125.124v-2.409a.243.243 0 01-.125-.123z" fill="#DAE8FD"/><path d="M32.198 49.357v-2.409c0 .062-.063.155-.157.185v2.41c.094-.032.157-.124.157-.186z" fill="#C6D5FA"/><path d="M32.073 47.164v2.409c.094-.062.156-.124.156-.185v-2.409c-.031.03-.062.123-.156.185z" fill="#C6D5FA"/><path d="M21.255 47.164v2.409l5.048 2.872v-2.409l-5.048-2.872z" fill="#DAE8FD"/><path d="M26.993 50.036l-.031 2.409 5.08-2.872.03-2.409-5.079 2.872z" fill="#C6D5FA"/><path d="M26.304 50.036v2.409a.64.64 0 00.345.092V50.13a.64.64 0 01-.345-.093z" fill="#D4E2FC"/><path d="M26.649 50.129v2.408a.64.64 0 00.345-.092v-2.409a.639.639 0 01-.345.093z" fill="#CDDCFB"/><path d="M21.255 46.763c-.188.093-.188.278 0 .401l5.049 2.872a.89.89 0 00.69 0l5.079-2.872c.188-.092.188-.278 0-.401l-5.048-2.872a.89.89 0 00-.69 0l-5.08 2.872z" fill="#98A4E0"/><path d="M21.287 49.388l4.922 2.779v-1.884l-4.922-2.779v1.884z" fill="#3E78A9"/><path d="M25.363 50.129l.69.401v.525l-.69-.401v-.525z" fill="#EFF6FE"/><path d="M22.917 49.264l-1.505-.834v-.556l1.505.865v.525z" fill="#67FDE5"/><path d="M25.08 50.5l-1.818-1.05v-.525l1.818 1.05v.524z" fill="#EFF6FE"/><path d="M23.67 50.53l.376.216v-.525l-.377-.216v.525z" fill="#67FDE5"/><path d="M21.412 49.264l.376.216v-.556l-.376-.216v.556zM22.07 49.078l1.38.803v.525l-1.38-.772v-.556zM24.296 50.376l1.756.988v.525l-1.756-.988v-.525z" fill="#EFF6FE"/><path d="M21.13 44.231V46.732s0 .031.032.031c0 0 .03 0 .03.03l.032.032 5.048 2.871c.032 0 .063.031.063.031h.031c.032 0 .032 0 .063.031h.376c.032 0 .032 0 .063-.03h.031c.032 0 .063-.032.063-.032l5.08-2.871c.094-.062.156-.124.156-.186v-2.408c0-.062-.031-.154-.125-.185l-5.048-2.872a.89.89 0 00-.69 0l-5.08 2.872c-.093.061-.125.123-.125.185zm.032.123c.03 0 .03.031 0 0 .03.031.03.031 0 0 .03.031.03 0 0 0zm.03.031c.032 0 .032 0 0 0 .032 0 .032 0 0 0zm11.006-.061c0-.031 0-.031 0 0 0-.031 0-.031 0 0zm0-.031s0-.031 0 0c0-.031 0 0 0 0zm-.062.062c.031 0 .031 0 0 0 .031 0 .031 0 0 0z" fill="#DAE8FD"/><path d="M21.13 44.231v2.408c0 .062.063.155.126.186v-2.409c-.095-.03-.126-.123-.126-.185z" fill="#DAE8FD"/><path d="M21.13 44.293V46.7a.243.243 0 00.126.124v-2.409a.243.243 0 01-.126-.123z" fill="#DAE8FD"/><path d="M32.199 46.64V44.23c0 .062-.063.154-.157.185v2.409c.094-.031.157-.124.157-.186z" fill="#C6D5FA"/><path d="M32.073 44.416v2.409c.094-.062.157-.124.157-.186v-2.408c-.031.062-.063.154-.157.185z" fill="#C6D5FA"/><path d="M21.255 44.416v2.409l5.048 2.902V47.32l-5.048-2.903z" fill="#DAE8FD"/><path d="M26.993 47.319v2.408l5.049-2.902.03-2.409-5.079 2.903z" fill="#C6D5FA"/><path d="M26.304 47.319v2.408a.64.64 0 00.345.093v-2.409a.64.64 0 01-.345-.092z" fill="#D4E2FC"/><path d="M26.649 47.38v2.41a.64.64 0 00.345-.093v-2.409c-.094.093-.22.093-.345.093z" fill="#CDDCFB"/><path d="M21.255 44.046c-.188.092-.188.278 0 .401l5.049 2.872a.89.89 0 00.69 0l5.079-2.872c.188-.093.188-.278 0-.401l-5.048-2.872a.89.89 0 00-.69 0l-5.08 2.872z" fill="#98A4E0"/><path d="M21.287 46.64l4.923 2.81v-1.884l-4.923-2.779v1.853z" fill="#3E78A9"/><path d="M25.363 47.412l.69.401v.525l-.69-.401v-.525z" fill="#EFF6FE"/><path d="M22.917 46.547l-1.473-.834v-.556l1.473.865v.525z" fill="#67FDE5"/><path d="M25.081 47.782l-1.819-1.05v-.525l1.819 1.05v.525z" fill="#EFF6FE"/><path d="M23.67 47.813l.376.216v-.525l-.376-.216v.525z" fill="#67FDE5"/><path d="M21.444 46.547l.376.216v-.556l-.376-.216v.556zM22.07 46.361l1.38.803v.525l-1.38-.803v-.525zM24.328 47.628l1.725 1.019v.525l-1.725-.988v-.556z" fill="#EFF6FE"/><path d="M21.098 41.514v2.5s0 .032.032.032c0 0 .031 0 .031.03l.031.032 5.049 2.871c.031 0 .062.031.062.031h.032c.031 0 .031 0 .062.031h.377c.031 0 .031 0 .062-.03h.032c.031 0 .062-.032.062-.032l5.08-2.871c.094-.062.157-.124.157-.186v-2.408c0-.062-.032-.155-.126-.186l-5.048-2.871a.89.89 0 00-.69 0l-5.08 2.871c-.062.031-.125.124-.125.186zm.063.123s.031 0 0 0c.031 0 0 0 0 0zm.031.031s.032 0 0 0c.032 0 0 0 0 0zm10.975-.093c.031 0 .031 0 0 0 .031 0 .031 0 0 0zm.031-.03s0-.031 0 0c0-.031 0 0 0 0zm0 .03c0-.03 0-.03 0 0 0-.03 0-.03 0 0zm-.094.124c0-.03 0-.03 0 0 0-.03 0-.03 0 0z" fill="#DAE8FD"/><path d="M21.098 41.514v2.408c0 .062.063.155.126.186v-2.41c-.063-.06-.126-.123-.126-.184z" fill="#DAE8FD"/><path d="M21.098 41.514V43.984v-2.409c.032-.03 0-.03 0-.061zM21.13 41.575v2.409a.243.243 0 00.125.123V41.7a.243.243 0 01-.125-.124z" fill="#DAE8FD"/><path d="M32.198 43.922v-2.408c0 .061-.063.154-.157.185v2.409c.094-.062.157-.124.157-.186z" fill="#C6D5FA"/><path d="M32.073 41.699v2.409c.094-.062.156-.124.156-.186v-2.408a.413.413 0 01-.156.185z" fill="#C6D5FA"/><path d="M21.255 41.699v2.408l5.048 2.903V44.6L21.255 41.7z" fill="#DAE8FD"/><path d="M26.993 44.601l-.031 2.409 5.08-2.903.03-2.408-5.079 2.902z" fill="#C6D5FA"/><path d="M26.304 44.602v2.408a.64.64 0 00.345.093v-2.409c-.126-.03-.251-.062-.345-.092z" fill="#D4E2FC"/><path d="M26.649 44.663v2.409c.125 0 .25-.031.345-.093v-2.408a.64.64 0 01-.345.092z" fill="#CDDCFB"/><path d="M21.255 41.328c-.188.093-.188.278 0 .402l5.049 2.872a.891.891 0 00.69 0l5.079-2.872c.188-.093.188-.278 0-.402l-5.048-2.871a.89.89 0 00-.69 0l-5.08 2.871z" fill="#98A4E0"/><path d="M21.287 43.922l4.922 2.81V44.85l-4.922-2.78v1.853z" fill="#3E78A9"/><path d="M25.363 44.694l.69.37v.557l-.69-.402v-.525z" fill="#EFF6FE"/><path d="M22.917 43.83l-1.505-.865v-.525l1.505.864v.526z" fill="#67FDE5"/><path d="M25.08 45.065l-1.818-1.05v-.525l1.818 1.05v.525z" fill="#EFF6FE"/><path d="M23.67 45.095l.376.216v-.525l-.377-.216v.525z" fill="#67FDE5"/><path d="M21.412 43.83l.376.184v-.524l-.376-.217v.556zM22.07 43.644l1.38.772v.556l-1.38-.803v-.525zM24.296 44.91l1.756.988v.556l-1.756-.988v-.556z" fill="#EFF6FE"/><path d="M21.13 38.766V41.266s0 .032.032.032c0 0 .031 0 .031.03l.032.031 5.048 2.872c.031 0 .063.03.063.03h.03c.032 0 .032 0 .064.032h.375c.032 0 .032 0 .064-.031h.031c.031 0 .063-.031.063-.031l5.08-2.872c.093-.061.156-.123.156-.185v-2.408c0-.062-.031-.155-.125-.186l-5.049-2.902a.891.891 0 00-.69 0l-5.079 2.871c-.094.093-.125.155-.125.217zm.032.154c.031 0 .031 0 0 0 .031 0 .031 0 0 0 .031 0 .031 0 0 0zm.031.03c.032 0 .032 0 0 0 .032 0 .032 0 0 0zm10.943-.061c.032 0 .032 0 0 0 .032 0 .032 0 0 0zm.032 0s0-.03 0 0c0-.03 0 0 0 0z" fill="#DAE8FD"/><path d="M21.13 38.765v2.409c0 .062.063.154.126.185v-2.408c-.095-.031-.126-.093-.126-.186z" fill="#DAE8FD"/><path d="M21.13 38.827v2.408a.243.243 0 00.126.124V38.95a.243.243 0 01-.126-.123z" fill="#DAE8FD"/><path d="M32.199 41.174v-2.409c0 .062-.063.155-.157.186v2.408c.094-.03.157-.092.157-.185z" fill="#C6D5FA"/><path d="M32.073 38.981v2.409c.094-.062.157-.124.157-.185v-2.409c-.031.062-.063.124-.157.185z" fill="#C6D5FA"/><path d="M21.255 38.982v2.408l5.048 2.872v-2.409l-5.048-2.871z" fill="#DAE8FD"/><path d="M26.993 41.853v2.409l5.049-2.872.03-2.408-5.079 2.871z" fill="#C6D5FA"/><path d="M26.304 41.853v2.409a.64.64 0 00.345.092v-2.408a.64.64 0 01-.345-.093z" fill="#D4E2FC"/><path d="M26.649 41.946v2.408a.64.64 0 00.345-.092v-2.409a.64.64 0 01-.345.093z" fill="#CDDCFB"/><path d="M21.255 38.58c-.188.093-.188.278 0 .402l5.049 2.871a.891.891 0 00.69 0l5.079-2.871c.188-.093.188-.278 0-.402l-5.048-2.902a.891.891 0 00-.69 0l-5.08 2.902z" fill="#ECF5FE"/><path d="M21.287 41.205l4.923 2.779v-1.853l-4.923-2.81v1.884z" fill="#3E78A9"/><path d="M25.363 41.946l.69.401v.525l-.69-.401v-.525z" fill="#EFF6FE"/><path d="M22.917 41.081l-1.473-.833v-.556l1.473.864v.525z" fill="#67FDE5"/><path d="M25.081 42.316l-1.819-1.05v-.524l1.819 1.05v.524z" fill="#EFF6FE"/><path d="M23.67 42.347l.376.217v-.525l-.376-.217v.525z" fill="#67FDE5"/><path d="M21.444 41.081l.376.216v-.555l-.376-.186v.525zM22.07 40.896l1.38.803v.525l-1.38-.772v-.556zM24.328 42.193l1.725.988v.525l-1.725-.988v-.525z" fill="#EFF6FE"/><path d="M30.505 38.92c-.031.062-.094.093-.157.123l-3.23 1.822c-.25.155-.689.155-.94 0l-3.23-1.822a.68.68 0 01-.156-.123c-.094-.123-.032-.278.157-.401l3.23-1.853c.25-.154.689-.154.94 0l3.23 1.822c.188.123.25.278.156.432z" fill="#C6D5FA"/><path d="M30.505 38.92c-.032.061-.095.092-.157.123l-3.23 1.822c-.25.154-.69.154-.94 0l-3.23-1.822c-.063-.03-.125-.093-.157-.123.032-.062.094-.093.157-.124l3.23-1.853c.25-.154.69-.154.94 0l3.23 1.822c.094.031.125.093.157.155z" fill="#67FDE5"/><path d="M27.244 50.407v2.501s0 .031.03.031c0 0 .032 0 .032.03l.032.032 5.048 2.872c.031 0 .062.03.062.03h.032c.031 0 .031 0 .063.031h.376c.031 0 .031 0 .063-.03h.03c.032 0 .063-.032.063-.032l5.08-2.871c.094-.062.157-.124.157-.185v-2.409c0-.062-.032-.154-.126-.185l-5.048-2.872a.891.891 0 00-.69 0L27.4 50.19c-.094.063-.156.155-.156.217zm11.1.03c0-.03 0-.03 0 0 0-.03 0-.03 0 0zm-.032 0c.031 0 .031 0 0 0 .031 0 .031 0 0 0zm-.063.124c0-.03 0-.03 0 0 0-.03 0-.03 0 0z" fill="#DAE8FD"/><path d="M27.244 50.407v2.409c0 .061.062.154.125.185v-2.409c-.063-.061-.125-.123-.125-.185z" fill="#DAE8FD"/><path d="M27.275 50.468v2.409a.243.243 0 00.126.124v-2.409c-.063-.03-.126-.093-.126-.123z" fill="#DAE8FD"/><path d="M38.343 52.816v-2.409c0 .062-.063.154-.157.185v2.409c.094-.062.157-.124.157-.185z" fill="#C6D5FA"/><path d="M38.186 50.592v2.409c.094-.062.157-.124.157-.185v-2.409c0 .062-.063.124-.157.185z" fill="#C6D5FA"/><path d="M27.4 50.592l-.031 2.409 5.048 2.871v-2.408L27.4 50.592z" fill="#DAE8FD"/><path d="M33.107 53.464v2.408l5.08-2.871v-2.409l-5.08 2.872z" fill="#C6D5FA"/><path d="M32.417 53.464v2.409a.64.64 0 00.345.092v-2.408a.827.827 0 01-.345-.093z" fill="#D4E2FC"/><path d="M32.793 53.557v2.408a.64.64 0 00.345-.092v-2.409a.723.723 0 01-.345.093z" fill="#CDDCFB"/><path d="M27.4 50.191c-.188.093-.188.278 0 .401l5.049 2.872a.891.891 0 00.69 0l5.079-2.872c.188-.092.188-.277 0-.401l-5.048-2.872a.891.891 0 00-.69 0l-5.08 2.872z" fill="#98A4E0"/><path d="M27.432 52.816l4.923 2.81v-1.884l-4.923-2.81v1.884z" fill="#3E78A9"/><path d="M31.508 53.588l.69.37v.556l-.69-.401v-.525z" fill="#EFF6FE"/><path d="M29.062 52.723l-1.505-.865v-.525l1.505.834v.556z" fill="#67FDE5"/><path d="M31.226 53.958l-1.85-1.05v-.556l1.85 1.05v.556z" fill="#EFF6FE"/><path d="M29.814 53.989l.377.216v-.556l-.377-.216v.556z" fill="#67FDE5"/><path d="M27.557 52.692l.376.216v-.525l-.376-.216v.525zM28.184 52.537l1.411.772v.556l-1.41-.803v-.525zM30.442 53.804l1.755.988v.556l-1.756-1.02v-.524z" fill="#EFF6FE"/><path d="M27.244 47.69V50.19s0 .032.03.032c0 0 .032 0 .032.03l.032.031 5.048 2.872c.031 0 .062.03.062.03h.032c.031 0 .031 0 .063.032h.376c.031 0 .031 0 .063-.031h.03c.032 0 .063-.031.063-.031l5.08-2.872c.094-.062.157-.123.157-.185V47.69c0-.062-.032-.155-.126-.186l-5.048-2.871a.89.89 0 00-.69 0l-5.08 2.871c-.062.031-.124.093-.124.186zm.03.03c0 .031 0 .031 0 0 0 .031 0 .031 0 0zm11.038 0c.031 0 .031 0 0 0 .031 0 .031 0 0 0zm-.032.093s0-.03 0 0c0-.03 0 0 0 0z" fill="#DAE8FD"/><path d="M27.244 47.69v2.408c0 .062.062.154.125.185v-2.408c-.063-.062-.125-.124-.125-.185z" fill="#DAE8FD"/><path d="M27.275 47.751v2.409a.243.243 0 00.126.123v-2.409c-.063-.03-.126-.092-.126-.123z" fill="#DAE8FD"/><path d="M38.343 50.067V47.66c0 .061-.063.154-.157.185v2.408c.094-.03.157-.092.157-.185z" fill="#C6D5FA"/><path d="M38.186 47.875v2.408c.094-.062.157-.123.157-.185V47.69c0 .061-.063.123-.157.185z" fill="#C6D5FA"/><path d="M27.4 47.875l-.031 2.408 5.048 2.872v-2.409L27.4 47.875z" fill="#DAE8FD"/><path d="M33.107 50.746v2.409l5.08-2.872v-2.408l-5.08 2.871z" fill="#C6D5FA"/><path d="M32.417 50.747v2.408a.64.64 0 00.345.093v-2.409a.828.828 0 01-.345-.092z" fill="#D4E2FC"/><path d="M32.793 50.84v2.408a.64.64 0 00.345-.093v-2.408a.724.724 0 01-.345.092z" fill="#CDDCFB"/><path d="M27.4 47.473c-.188.093-.188.278 0 .402l5.049 2.872a.891.891 0 00.69 0l5.079-2.872c.188-.093.188-.278 0-.402l-5.048-2.871a.891.891 0 00-.69 0l-5.08 2.871z" fill="#98A4E0"/><path d="M27.432 50.098l4.923 2.78v-1.853l-4.923-2.81v1.883z" fill="#3E78A9"/><path d="M31.508 50.839l.69.401v.525l-.69-.37v-.556z" fill="#EFF6FE"/><path d="M29.062 50.005l-1.505-.864v-.525l1.505.833v.556z" fill="#67FDE5"/><path d="M31.226 51.24l-1.85-1.05v-.555l1.85 1.05v.556z" fill="#EFF6FE"/><path d="M29.814 51.271l.377.216v-.556l-.377-.216v.556z" fill="#67FDE5"/><path d="M27.557 49.974l.376.216v-.525l-.376-.216v.525zM28.184 49.789l1.411.803v.525l-1.41-.772v-.556zM30.442 51.086l1.755.988v.525l-1.756-.988v-.525z" fill="#EFF6FE"/><path d="M27.244 44.972c0-.031 0-.031 0 0V47.473s0 .03.03.03c0 0 .032 0 .032.032l.032.03 5.048 2.872c.031 0 .062.031.062.031h.032c.031 0 .031 0 .063.031h.376c.031 0 .031 0 .063-.03h.03c.032 0 .063-.032.063-.032l5.08-2.871c.094-.062.157-.124.157-.186v-2.408c0-.062-.032-.155-.126-.186l-5.048-2.871a.891.891 0 00-.69 0l-5.08 2.871c-.062.031-.124.093-.124.186zm0 0s0 .03 0 0c0 .03 0 0 0 0zm11.036.123c0-.03 0-.03 0 0 0-.03 0-.03 0 0zm.032-.03s0-.031 0 0c0-.031 0 0 0 0zm-.094.061c.031 0 .031 0 0 0 .031 0 .031 0 0 0zm.031-.03s.031 0 0 0c.031 0 0 0 0 0z" fill="#DAE8FD"/><path d="M27.244 44.941v2.409c0 .061.062.154.125.185v-2.409c-.063-.03-.125-.092-.125-.185z" fill="#DAE8FD"/><path d="M27.275 45.034v2.408a.243.243 0 00.126.124v-2.409c-.063-.062-.126-.092-.126-.123z" fill="#DAE8FD"/><path d="M38.343 47.35V44.94c0 .062-.063.154-.157.185v2.409c.094-.031.157-.093.157-.185z" fill="#C6D5FA"/><path d="M38.186 45.157v2.409c.094-.062.157-.124.157-.186v-2.408c0 .062-.063.123-.157.185z" fill="#C6D5FA"/><path d="M27.4 45.157v2.409l5.017 2.871.032-2.408-5.049-2.872z" fill="#DAE8FD"/><path d="M33.107 48.029v2.408l5.08-2.871v-2.409l-5.08 2.872z" fill="#C6D5FA"/><path d="M32.449 48.029v2.408a.64.64 0 00.345.093v-2.409a.64.64 0 01-.345-.092z" fill="#D4E2FC"/><path d="M32.794 48.121v2.409a.64.64 0 00.345-.093V48.03a.64.64 0 01-.345.092z" fill="#CDDCFB"/><path d="M27.4 44.756c-.188.092-.188.278 0 .401l5.049 2.872a.891.891 0 00.69 0l5.079-2.872c.188-.093.188-.278 0-.401l-5.048-2.872a.891.891 0 00-.69 0l-5.08 2.872z" fill="#98A4E0"/><path d="M27.432 47.38l4.923 2.78v-1.853l-4.923-2.81v1.884z" fill="#3E78A9"/><path d="M31.508 48.121l.69.402v.525l-.69-.37v-.557z" fill="#EFF6FE"/><path d="M29.062 47.257l-1.505-.834v-.525l1.505.834v.525z" fill="#67FDE5"/><path d="M31.226 48.492l-1.85-1.05v-.525l1.85 1.05v.525z" fill="#EFF6FE"/><path d="M29.814 48.523l.377.216v-.525l-.377-.216v.525z" fill="#67FDE5"/><path d="M27.557 47.257l.376.216v-.525l-.376-.216v.525zM28.184 47.072l1.411.802v.525l-1.41-.772v-.556zM30.442 48.369l1.755.988v.525l-1.756-.988v-.525z" fill="#EFF6FE"/><path d="M27.244 42.224V44.725s0 .03.03.03c0 0 .032 0 .032.032l.032.03 5.08 2.903c.03 0 .062.031.062.031h.031c.031 0 .031 0 .063.031h.376c.031 0 .031 0 .063-.03h.031c.032 0 .063-.032.063-.032l5.08-2.871c.093-.062.156-.124.156-.186v-2.408c0-.062-.031-.155-.125-.186l-5.048-2.871a.89.89 0 00-.69 0l-5.08 2.871c-.094.031-.156.093-.156.155zm.062.123c0 .031 0 .031 0 0 0 .031 0 .031 0 0zm.032.031s0 .031 0 0c0 .031 0 0 0 0zm10.974-.062s0-.03 0 0c0-.03 0 0 0 0zm0-.03c.031 0 .031 0 0 0 .031 0 .031 0 0 0zm0 .061c0-.03 0-.03 0 0 0-.03 0-.03 0 0z" fill="#DAE8FD"/><path d="M27.244 42.224v2.409c0 .061.062.154.125.185v-2.409c-.063-.03-.125-.092-.125-.185z" fill="#DAE8FD"/><path d="M27.275 42.286v2.408a.244.244 0 00.126.124v-2.409c-.063-.03-.126-.062-.126-.123z" fill="#DAE8FD"/><path d="M38.343 44.633v-2.409c0 .062-.063.154-.157.185v2.409c.094-.031.157-.124.157-.185z" fill="#C6D5FA"/><path d="M38.186 42.44v2.409c.094-.062.157-.124.157-.186v-2.408c0 .03-.063.123-.157.185z" fill="#C6D5FA"/><path d="M27.4 42.44l-.031 2.409 5.048 2.871v-2.408L27.4 42.44z" fill="#DAE8FD"/><path d="M33.107 45.312v2.408l5.08-2.871v-2.41l-5.08 2.873z" fill="#C6D5FA"/><path d="M32.417 45.312v2.408a.64.64 0 00.345.093v-2.409a.828.828 0 01-.345-.092z" fill="#D4E2FC"/><path d="M32.793 45.404v2.41a.64.64 0 00.345-.094v-2.408a.724.724 0 01-.345.093z" fill="#CDDCFB"/><path d="M27.4 42.039c-.188.092-.188.278 0 .401l5.049 2.872a.891.891 0 00.69 0l5.079-2.872c.188-.093.188-.278 0-.401l-5.048-2.872a.891.891 0 00-.69 0l-5.08 2.872z" fill="#98A4E0"/><path d="M27.432 44.633l4.923 2.81v-1.884l-4.923-2.779v1.853z" fill="#3E78A9"/><path d="M31.508 45.405l.69.401v.525l-.69-.401v-.525z" fill="#EFF6FE"/><path d="M29.062 44.54l-1.505-.834v-.556l1.505.865v.525z" fill="#67FDE5"/><path d="M31.226 45.775l-1.85-1.05V44.2l1.85 1.05v.525z" fill="#EFF6FE"/><path d="M29.814 45.806l.377.216v-.525l-.377-.216v.525z" fill="#67FDE5"/><path d="M27.557 44.54l.376.216V44.2l-.376-.216v.556zM28.184 44.355l1.411.802v.525l-1.41-.803v-.524zM30.442 45.652l1.755.988v.525l-1.756-.989v-.524z" fill="#EFF6FE"/><path d="M27.244 39.507v2.501s0 .03.03.03c0 0 .032 0 .032.032l.032.03 5.048 2.872c.031 0 .063.031.063.031h.03c.032 0 .032 0 .064.03h.375c.032 0 .032 0 .063-.03h.032c.031 0 .063-.03.063-.03l5.08-2.873c.093-.061.156-.123.156-.185v-2.408c0-.062-.031-.155-.126-.186l-5.048-2.871a.891.891 0 00-.69 0L27.37 39.32c-.063.031-.125.093-.125.186zm10.974.154c.031 0 .031 0 0 0 .031 0 .031 0 0 0zm.031 0c0-.03.032-.03 0 0 .032-.03 0-.03 0 0z" fill="#DAE8FD"/><path d="M27.244 39.507v2.408c0 .062.062.154.125.185v-2.408c-.063-.062-.125-.124-.125-.185z" fill="#DAE8FD"/><path d="M27.275 39.568v2.409a.244.244 0 00.126.123v-2.408c-.063-.031-.126-.093-.126-.124z" fill="#DAE8FD"/><path d="M38.343 41.915v-2.408c0 .061-.063.154-.157.185V42.1c.094-.061.157-.123.157-.185z" fill="#C6D5FA"/><path d="M38.186 39.692V42.1c.094-.061.157-.123.157-.185v-2.408c0 .061-.063.123-.157.185z" fill="#C6D5FA"/><path d="M27.4 39.692V42.1l5.017 2.872.032-2.409-5.049-2.871z" fill="#DAE8FD"/><path d="M33.107 42.563v2.409l5.08-2.872v-2.408l-5.08 2.871z" fill="#C6D5FA"/><path d="M32.449 42.564v2.408a.64.64 0 00.345.093v-2.409a.64.64 0 01-.345-.092z" fill="#D4E2FC"/><path d="M32.794 42.656v2.409a.64.64 0 00.345-.093v-2.408a.64.64 0 01-.345.092z" fill="#CDDCFB"/><path d="M27.4 39.29c-.188.093-.188.278 0 .402l5.049 2.872a.891.891 0 00.69 0l5.048-2.872c.188-.093.188-.278 0-.402l-5.049-2.871a.891.891 0 00-.69 0l-5.047 2.871z" fill="#ECF5FE"/><path d="M27.432 41.915l4.923 2.78v-1.853l-4.923-2.81v1.883z" fill="#3E78A9"/><path d="M31.508 42.656l.69.402v.525l-.69-.371v-.556z" fill="#EFF6FE"/><path d="M29.062 41.822l-1.505-.864v-.525l1.505.834v.555z" fill="#67FDE5"/><path d="M31.226 43.058l-1.85-1.05v-.556l1.85 1.05v.556z" fill="#EFF6FE"/><path d="M29.814 43.088l.377.216v-.555l-.377-.217v.556z" fill="#67FDE5"/><path d="M27.557 41.791l.376.217v-.525l-.376-.216v.524zM28.184 41.637l1.411.772v.525l-1.41-.772v-.525zM30.442 42.903l1.755.988v.556l-1.756-1.019v-.525z" fill="#EFF6FE"/><path d="M36.65 39.63c-.031.062-.094.093-.157.124l-3.229 1.822c-.25.154-.69.154-.94 0l-3.23-1.822a.684.684 0 01-.157-.124c-.094-.123-.031-.278.157-.401l3.23-1.822c.25-.154.69-.154.94 0l3.23 1.822c.188.092.25.278.156.401z" fill="#C6D5FA"/><path d="M36.65 39.63c-.032.062-.094.093-.157.123l-3.23 1.822c-.25.155-.69.155-.94 0l-3.23-1.822a.68.68 0 01-.157-.123c.032-.062.095-.093.157-.123l3.23-1.822c.25-.155.69-.155.94 0l3.23 1.822c.063.03.125.061.157.123z" fill="#67FDE5"/><path d="M33.452 53.927V56.428s0 .03.031.03c0 0 .032 0 .032.032l.031.03 5.048 2.872c.032 0 .063.031.063.031h.031c.032 0 .032 0 .063.031h.376c.031 0 .031 0 .063-.03h.031c.032 0 .063-.032.063-.032l5.08-2.871c.094-.062.156-.124.156-.186v-2.408c0-.062-.031-.154-.125-.185l-5.048-2.903a.891.891 0 00-.69 0l-5.08 2.872c-.094.092-.125.154-.125.216zm.063.123s0 .031 0 0c0 .031 0 0 0 0zm11.005-.03c0-.031 0-.031 0 0 0-.031 0-.031 0 0zm-.031 0c.031 0 .031 0 0 0 .031 0 .031 0 0 0z" fill="#DAE8FD"/><path d="M33.452 53.927v2.408c0 .062.063.155.125.186v-2.409c-.062-.03-.125-.123-.125-.185z" fill="#DAE8FD"/><path d="M33.452 53.988v2.409a.243.243 0 00.125.123v-2.408a.243.243 0 01-.125-.124z" fill="#DAE8FD"/><path d="M44.52 56.335v-2.408c0 .062-.062.154-.157.185v2.409c.126-.031.157-.124.157-.186z" fill="#C6D5FA"/><path d="M44.395 54.112v2.409c.094-.062.157-.124.157-.186v-2.408c0 .062-.063.154-.157.185z" fill="#C6D5FA"/><path d="M33.608 54.112l-.03 2.409 5.047 2.902v-2.408l-5.017-2.903z" fill="#DAE8FD"/><path d="M39.315 57.015v2.408l5.08-2.902v-2.409l-5.08 2.903z" fill="#C6D5FA"/><path d="M38.626 57.015v2.408a.64.64 0 00.344.093v-2.409a.64.64 0 01-.344-.092z" fill="#D4E2FC"/><path d="M39.002 57.077v2.408a.64.64 0 00.344-.093v-2.408c-.125.093-.25.093-.344.093z" fill="#CDDCFB"/><path d="M33.609 53.742c-.188.092-.188.278 0 .401l5.048 2.872a.891.891 0 00.69 0l5.08-2.872c.187-.093.187-.278 0-.401l-5.08-2.903a.891.891 0 00-.69 0l-5.048 2.903z" fill="#98A4E0"/><path d="M33.64 56.336l4.923 2.81v-1.884l-4.923-2.78v1.854z" fill="#3E78A9"/><path d="M37.716 57.107l.69.402v.525l-.69-.402v-.525z" fill="#EFF6FE"/><path d="M35.27 56.243l-1.505-.834v-.556l1.505.865v.525z" fill="#67FDE5"/><path d="M37.434 57.478l-1.85-1.05v-.525l1.85 1.05v.525z" fill="#EFF6FE"/><path d="M36.023 57.508l.376.217V57.2l-.376-.217v.526z" fill="#67FDE5"/><path d="M33.765 56.243l.377.216v-.556l-.377-.216v.556zM34.392 56.057l1.38.803v.525l-1.38-.803v-.525zM36.65 57.324l1.756 1.019v.524l-1.756-.988v-.555z" fill="#EFF6FE"/><path d="M33.452 51.21V53.71s0 .031.031.031c0 0 .032 0 .032.031l.031.031 5.048 2.872c.032 0 .063.03.063.03h.031c.032 0 .032 0 .063.032h.376c.031 0 .031 0 .063-.031h.031c.032 0 .063-.031.063-.031l5.08-2.872c.094-.062.156-.123.156-.185v-2.409c0-.061-.031-.154-.125-.185l-5.048-2.903a.89.89 0 00-.69 0l-5.08 2.872a.267.267 0 00-.125.216zm11.1.03s0-.03 0 0c0-.03 0 0 0 0zm-.032.031c0-.03 0-.03 0 0 0-.03 0-.03 0 0zm-.031.031c.031 0 .031 0 0 0 .031 0 .031 0 0 0zm-.063.093c0-.031 0-.031 0 0 0-.031 0-.031 0 0z" fill="#DAE8FD"/><path d="M33.452 51.21v2.408c0 .061.063.154.125.185v-2.408c-.062-.031-.125-.124-.125-.186z" fill="#DAE8FD"/><path d="M33.452 51.27v2.41a.243.243 0 00.125.123v-2.409a.243.243 0 01-.125-.123z" fill="#DAE8FD"/><path d="M44.52 53.618v-2.409c0 .062-.062.155-.157.185v2.409c.126-.062.157-.123.157-.185z" fill="#C6D5FA"/><path d="M44.395 51.395v2.408c.094-.062.157-.123.157-.185v-2.409c0 .062-.063.124-.157.185z" fill="#C6D5FA"/><path d="M33.608 51.395l-.03 2.408 5.047 2.903v-2.409l-5.017-2.902z" fill="#DAE8FD"/><path d="M39.315 54.297v2.409l5.08-2.903v-2.408l-5.08 2.902z" fill="#C6D5FA"/><path d="M38.626 54.297v2.409a.64.64 0 00.344.092V54.39c-.125-.031-.25-.062-.344-.093z" fill="#D4E2FC"/><path d="M39.002 54.359v2.408a.64.64 0 00.344-.092v-2.409a.828.828 0 01-.344.093z" fill="#CDDCFB"/><path d="M33.609 51.024c-.188.093-.188.278 0 .401l5.048 2.872a.89.89 0 00.69 0l5.08-2.871c.187-.093.187-.278 0-.402l-5.08-2.903a.89.89 0 00-.69 0l-5.048 2.903z" fill="#98A4E0"/><path d="M33.64 53.618l4.923 2.81v-1.884l-4.923-2.779v1.853z" fill="#3E78A9"/><path d="M37.716 54.39l.69.37v.556l-.69-.401v-.525z" fill="#EFF6FE"/><path d="M35.27 53.525l-1.505-.864v-.525L35.27 53v.525z" fill="#67FDE5"/><path d="M37.434 54.76l-1.85-1.05v-.525l1.85 1.05v.525z" fill="#EFF6FE"/><path d="M36.023 54.79l.376.217v-.525l-.376-.216v.525z" fill="#67FDE5"/><path d="M33.765 53.525l.377.185v-.525l-.377-.216v.556zM34.392 53.34l1.38.772v.555l-1.38-.803v-.524zM36.65 54.606l1.756 1.019v.525l-1.756-.988v-.556z" fill="#EFF6FE"/><path d="M33.452 48.492V50.993s0 .031.031.031c0 0 .032 0 .032.031l.031.031 5.048 2.872c.032 0 .063.03.063.03h.031c.032 0 .032 0 .063.032h.376c.031 0 .031 0 .063-.031h.031c.032 0 .063-.031.063-.031l5.08-2.872c.094-.062.156-.123.156-.185v-2.409c0-.061-.031-.154-.125-.185l-5.048-2.903a.891.891 0 00-.69 0l-5.08 2.872c-.062.062-.125.155-.125.216zm11.1.031c0-.03 0-.03 0 0 0-.03 0-.03 0 0zm-.032 0c.032 0 .032 0 0 0 .032 0 .032 0 0 0zm-.063.124s0-.031 0 0c0-.031 0 0 0 0z" fill="#DAE8FD"/><path d="M33.452 48.492v2.409c0 .062.063.154.125.185v-2.408c-.062-.062-.125-.124-.125-.186z" fill="#DAE8FD"/><path d="M33.483 48.554v2.408a.243.243 0 00.126.124v-2.408c-.063-.031-.126-.093-.126-.124z" fill="#DAE8FD"/><path d="M44.551 50.9v-2.408c0 .062-.063.155-.157.186v2.408c.095-.062.157-.123.157-.185z" fill="#C6D5FA"/><path d="M44.395 48.678v2.408c.093-.062.156-.123.156-.185v-2.409c0 .062-.063.124-.157.186z" fill="#C6D5FA"/><path d="M33.608 48.678l-.03 2.408 5.047 2.903V51.58l-5.017-2.902z" fill="#DAE8FD"/><path d="M39.315 51.58v2.409l5.08-2.903v-2.408l-5.08 2.902z" fill="#C6D5FA"/><path d="M38.626 51.58v2.409a.64.64 0 00.344.092v-2.408c-.094-.031-.22-.062-.344-.093z" fill="#D4E2FC"/><path d="M39.002 51.642v2.408a.64.64 0 00.344-.092v-2.409a.723.723 0 01-.344.093z" fill="#CDDCFB"/><path d="M33.609 48.276c-.188.093-.188.278 0 .402l5.048 2.871a.891.891 0 00.69 0l5.08-2.871c.187-.093.187-.278 0-.402l-5.08-2.872a.891.891 0 00-.69 0l-5.048 2.872z" fill="#98A4E0"/><path d="M33.64 50.901l4.923 2.81v-1.884l-4.923-2.81v1.884z" fill="#3E78A9"/><path d="M37.716 51.673l.69.37v.556l-.69-.401v-.525z" fill="#EFF6FE"/><path d="M35.27 50.808l-1.505-.864v-.525l1.505.833v.556z" fill="#67FDE5"/><path d="M37.434 52.043l-1.85-1.05v-.555l1.85 1.05v.555z" fill="#EFF6FE"/><path d="M36.023 52.074l.376.216v-.556l-.376-.216v.556z" fill="#67FDE5"/><path d="M33.765 50.777l.377.216v-.525l-.377-.216v.525zM34.392 50.623l1.411.772v.555l-1.41-.803v-.524zM36.65 51.889l1.756.988v.556l-1.756-1.02v-.524z" fill="#EFF6FE"/><path d="M33.452 45.775V48.276s0 .03.031.03c0 0 .032 0 .032.032l.031.03 5.048 2.872c.032 0 .063.031.063.031h.031c.032 0 .032 0 .063.031h.376c.031 0 .031 0 .063-.03h.031c.032 0 .063-.032.063-.032l5.08-2.871c.094-.062.156-.124.156-.186v-2.408c0-.062-.031-.155-.125-.185l-5.048-2.903a.891.891 0 00-.69 0l-5.048 2.872c-.126.061-.157.123-.157.216zm11.037.092c.031 0 .031 0 0 0 .031 0 .031 0 0 0zm-.031.062c0-.03 0-.03 0 0 0-.03 0-.03 0 0z" fill="#DAE8FD"/><path d="M33.452 45.775v2.408c0 .062.063.155.125.185V45.96c-.062-.062-.125-.124-.125-.185z" fill="#DAE8FD"/><path d="M33.452 45.836v2.409a.243.243 0 00.125.123V45.96c-.062-.031-.094-.093-.125-.124z" fill="#DAE8FD"/><path d="M44.52 48.183v-2.408c0 .061-.062.154-.157.185v2.408c.126-.061.157-.123.157-.185z" fill="#C6D5FA"/><path d="M44.395 45.96v2.408c.094-.061.157-.123.157-.185v-2.408c0 .061-.063.123-.157.185z" fill="#C6D5FA"/><path d="M33.608 45.96l-.03 2.408 5.047 2.872v-2.408l-5.017-2.872z" fill="#DAE8FD"/><path d="M39.315 48.832v2.408l5.08-2.872V45.96l-5.08 2.872z" fill="#C6D5FA"/><path d="M38.626 48.832v2.408a.64.64 0 00.344.093v-2.409a.64.64 0 01-.344-.092z" fill="#D4E2FC"/><path d="M39.002 48.924v2.409a.64.64 0 00.344-.093v-2.408a.828.828 0 01-.344.092z" fill="#CDDCFB"/><path d="M33.609 45.559c-.188.092-.188.278 0 .401l5.048 2.872a.891.891 0 00.69 0l5.08-2.872c.187-.093.187-.278 0-.401l-5.08-2.872a.891.891 0 00-.69 0l-5.048 2.872z" fill="#ECF5FE"/><path d="M33.64 48.184l4.923 2.779V49.11L33.64 46.3v1.884z" fill="#3E78A9"/><path d="M37.717 48.924l.69.402v.525l-.69-.371v-.556z" fill="#EFF6FE"/><path d="M35.27 48.09l-1.505-.864V46.7l1.505.834v.556z" fill="#67FDE5"/><path d="M37.434 49.326l-1.85-1.05v-.556l1.85 1.05v.556z" fill="#EFF6FE"/><path d="M36.023 49.356l.376.217v-.556l-.376-.216v.555z" fill="#67FDE5"/><path d="M33.765 48.06l.377.216v-.525l-.377-.216v.525zM34.392 47.905l1.38.772v.525l-1.38-.772v-.525zM36.65 49.171l1.756.989v.555l-1.756-1.019v-.525z" fill="#EFF6FE"/><path d="M42.859 45.806c-.032.061-.094.092-.157.123l-3.23 1.822c-.25.154-.69.154-.94 0l-3.23-1.822a.679.679 0 01-.157-.123c-.094-.124-.031-.278.157-.402l3.23-1.822c.25-.154.69-.154.94 0l3.23 1.822c.188.093.25.247.157.402z" fill="#C6D5FA"/><path d="M42.859 45.806c-.032.061-.094.092-.157.123l-3.23 1.822c-.25.154-.69.154-.94 0l-3.23-1.822c-.062-.03-.125-.093-.156-.123.03-.062.094-.093.156-.124l3.23-1.822c.25-.154.69-.154.94 0l3.23 1.822c.063.031.126.062.157.124z" fill="#67FDE5"/><path d="M10.72 34.998c.784-.154 1.693 0 2.696.495.314-.989.941-1.637 1.756-1.946.94-.34 2.132-.154 3.45.587.47.278.94.617 1.379.988a7.193 7.193 0 01.658-2.625c.659-1.358 1.725-2.223 3.105-2.47 1.348-.278 3.01.062 4.765 1.05 1.16.68 2.29 1.575 3.293 2.625a19.628 19.628 0 013.73 5.62c.785 1.76 1.286 3.612 1.412 5.372.439.155.878.37 1.348.618a13.023 13.023 0 012.853 2.285 17.548 17.548 0 013.23 4.848c.784 1.79 1.254 3.644 1.254 5.373 0 1.142-.22 2.13-.596 2.902-.564 1.174-1.505 1.915-2.665 2.162-1.191.216-2.602-.062-4.107-.926L13.73 48.029c-.753-.432-1.474-1.019-2.132-1.698a12.33 12.33 0 01-2.383-3.613c-.565-1.328-.91-2.717-.91-3.983 0-.865.157-1.575.44-2.162.407-.864 1.097-1.42 1.975-1.575zm-.878 6.485c.313 1.05.846 2.1 1.536 2.995.69.896 1.505 1.668 2.383 2.162l24.52 13.957c.846.494 1.662.741 2.383.803 1.097.092 2.038-.247 2.728-.988.658-.742 1.066-1.853 1.066-3.304 0-.958-.157-1.977-.47-2.996a14.564 14.564 0 00-2.227-4.323c-.972-1.297-2.163-2.408-3.449-3.15-.596-.339-1.191-.586-1.756-.71a.45.45 0 01-.188-.061c-.125-.062-.25-.186-.376-.34a1.243 1.243 0 01-.251-.741c0-1.143-.188-2.347-.564-3.551-.533-1.791-1.474-3.582-2.634-5.126-1.16-1.544-2.571-2.872-4.076-3.736-1.004-.587-1.976-.896-2.854-.958-1.316-.123-2.414.31-3.23 1.174-.783.864-1.253 2.192-1.253 3.89v.186c0 .247-.094.401-.282.432-.095.031-.22 0-.345-.062-.095-.061-.157-.123-.251-.185-.533-.556-1.098-1.05-1.725-1.39-1.003-.586-1.944-.71-2.696-.432-.721.247-1.255.896-1.474 1.853-.063.278-.313.37-.596.185-.031-.03-.062-.03-.094-.062-.595-.34-1.16-.524-1.662-.555-.752-.062-1.41.185-1.88.679-.471.494-.722 1.266-.722 2.285.125.68.22 1.39.439 2.069z" fill="#EFF6FE"/><path d="M43.517 62.48l9.344-5.342c.658-.37 1.191-.957 1.568-1.73.376-.771.595-1.76.595-2.902 0-1.729-.439-3.582-1.254-5.373a17.105 17.105 0 00-3.23-4.848A13.028 13.028 0 0047.688 40c-.47-.247-.91-.463-1.348-.617l-9.344 5.311c.44.154.878.37 1.348.617a13.021 13.021 0 012.854 2.286 17.548 17.548 0 013.23 4.847c.783 1.791 1.254 3.644 1.254 5.373 0 1.143-.22 2.131-.596 2.903-.377.803-.91 1.39-1.568 1.76z" fill="#C6D5FA"/><path d="M31.853 25.117l-9.375 5.373a4.55 4.55 0 011.285-.463c1.349-.278 3.01.061 4.766 1.05 1.16.679 2.29 1.574 3.293 2.624a19.625 19.625 0 013.73 5.62c.785 1.76 1.286 3.613 1.412 5.373l9.343-5.342c-.125-1.76-.627-3.613-1.41-5.373a19.629 19.629 0 00-3.732-5.62c-1.003-1.08-2.132-1.976-3.292-2.624-1.756-.988-3.386-1.328-4.766-1.05a3.554 3.554 0 00-1.254.432z" fill="#CDDCFB"/><path opacity=".3" d="M33.154 14.321c-.478.307-1.057.41-1.67.41h-.034.034v84.083c.375 0 .75-.102 1.09-.34l23.51-13.571c.444-.24.648-.444.648-.75V.683L33.154 14.32z" fill="url(#paint8_linear)"/><path opacity=".5" d="M31.485 14.73h-.41-.033c-.137 0-.273-.034-.41-.068-.068-.034-.17-.034-.238-.068-.034 0-.102-.034-.17-.034a1.259 1.259 0 01-.375-.17L6.236.681v83.436c0 .273.17.478.443.648l23.715 13.707c.375.239.716.341 1.056.341h.035V14.73z" fill="url(#paint9_linear)"/><path d="M56.87 88.142c.069.58.75 3.035.614 3.887-.136.853-2.487 2.25-2.487 2.25l-.307-1.431 1.295-1.262-.34-2.387 1.226-1.057z" fill="#FFA8A7"/><path d="M55.064 85.38c.34-.136.954-.17 1.294.41.341.579.716 2.522.716 2.863 0 0-.477.682-1.193.546l-.817-3.819z" fill="#E4F2F2"/><path d="M55.372 111.601s.034.238.102.579c.068.239.068.58-.205.648-.272.103-.613.068-.783-.17-.239-.307-.341-.682-.648-.955-.306-.273-.681-.614-.817-1.057-.103-.409-.035-.648.238-.682.34-.034.886.239 1.193.443.204.137.92 1.194.92 1.194zM52.203 112.794s.035.307.035.58c.034.273.102.648.034.852-.069.205-.511.341-.989.341-.306 0-.953.239-1.158.444-.307.272-1.022.375-1.465.238-.409-.136-.886-.341-.954-.511-.068-.205.136-.307 1.192-.784 1.023-.478 1.806-.819 2.215-1.364l1.09.204z" fill="#2D2979"/><path d="M55.61 106.111c-.17-1.364-.443-2.148-.443-2.148s.136-1.875.205-3.648c.068-2.012.783-3.785.238-5.388l-6.201 1.364s.375 8.013.443 8.968c.034.511.068 1.057.272 2.25.273 1.569.75 5.251.75 5.251.647.375 1.295 0 1.295 0s.17-4.501.136-5.626c-.068-1.364-.102-1.262-.102-1.262l.204-3.409.137-1.705s.17 1.227.272 2.353c.102.954.34 1.841.58 3.648.238 1.568.817 4.774.817 4.774.648.375 1.125.034 1.125.034s.477-4.092.272-5.456z" fill="#C4D9FF"/><path d="M52.542 100.792s.17 1.228.273 2.353c.034.477.136.92.238 1.466 0 0-.102-2.08-.068-3.035.034-.989.136-2.045.136-2.045 1.295-.546 1.568-1.33 1.568-1.33-.954.818-1.976 1.09-1.976 1.09l-.17 1.501z" fill="#9EBCE8"/><path d="M54.724 85.414c-.477.034-.817.137-.886 0-.034-.102-.102-.75-.102-.75.068-.136.102-.273.102-.273.58-.375 1.023-.989 1.09-1.739a2.33 2.33 0 00-2.078-2.557c-1.192-.136-2.078.716-2.317 1.875-.136.58-.306 1.773.034 2.728.205.512.341.75.614.853.102.034.545 0 .715 0 0 0 .068.34.102.58.034.238.034.34-.408.613-.444.273.68.852 1.43.784.75-.068 1.568-.511 1.806-.989.239-.511.205-1.159-.102-1.125z" fill="#FFA8A7"/><path d="M51.588 86.744l-.034.034.648.239 1.908-.307.443-1.16s0-.068-.034-.136c-.375.034-.614.102-.682 0-.034-.068-.068-.477-.102-.648-.34.069-.75.137-.852.137-.17 0-.784-.887-.784-.887s-.068.75-.17.955c-.068.204-.647.545-.852.511.034.034.068.034.102.034.103.035.546 0 .716 0 0 0 .068.341.102.58.068.239.034.375-.409.648z" fill="#F28F8F"/><path d="M54.928 81.22c-.068-.273-.238-.648-1.737-1.057-1.432-.409-2.556-.58-2.829-.375-.272.17-.34 1.603.989 2.25a.688.688 0 01.102.376c0 .204-.034.375 0 .613.034.341.409.375.409.375v-.613c.136-.273.613-.341.783.034.17.375.069.716-.034.955-.17.306-.409.306-.51.204 0 .341.067.853.442 1.262a1.4 1.4 0 001.227-.273c.068-.136.238-.41.443-.784.272-.444.579-.716.715-1.432.137-.614.137-1.023 0-1.535z" fill="#3A2C6D"/><path d="M54.041 85.483c.136.34-.204.715-1.09.988-.886.273-.954-.068-.954-.068s-1.295.58-1.738.887c-.545.375-.784 1.432-.852 3.273-.068 2.114-.102 5.217-.034 5.762 0 0 .988.99 2.249.887 1.26-.102 3.407-1.228 3.918-2.114 0-1.841-.238-2.148.069-3.205.68-2.421 1.056-3.41.715-5.047-.273-1.33-.647-1.5-1.193-1.5-.477.034-1.09.136-1.09.136z" fill="#F5FBFB"/><path d="M53.805 85.278c-.17.239-.818.75-1.806.75-.205-.034-.307.341-.41.512 0 0 .444.375 1.432.102.988-.239 1.329-.989 1.26-1.262 0 .069-.306-.272-.476-.102z" fill="#E4F2F2"/><path d="M47.432 92.609c1.056.273 1.294-.41 1.43-.955.341-1.33.512-2.523.75-3.273.307-.887.614-1.023 1.023-1.194.51-.204.954.239.783 1.364-.204 1.33-.443 2.25-.954 3.853-.136.41-.409 1.125-.852 1.5-.545.444-1.363.41-2.59.103-.51-.137-1.09-.444-2.078-.92-.272-.137-.477-.205-.988-.444-.51-.239-1.056-.648-1.295-1.023-.272-.375-.306-.58-.238-.648.068-.102.204-.102.34.068.137.17.341.444.75.682 0 0-.34-.34-.51-.545-.171-.205-.307-.478-.41-.648-.102-.239.102-.546.239-.375.136.17.204.34.477.648.238.306.477.477.477.477s-.273-.375-.443-.716c-.17-.341-.17-.546-.17-.648 0-.102.17-.273.34-.034.137.205.239.511.545.853.239.238.443.375.443.306 0-.068-.136-.204-.238-.477-.068-.273 0-.58.17-.614.17-.034.136-.034.273.239.136.273.34.477.477.852.136.341.204.478.443.75.238.273.818.58 1.806.819z" fill="#FFA8A7"/><path d="M51.01 87.05c-.681-.101-1.192.206-1.499 1.263-.307 1.056-.511 1.909-.511 1.909s.34.58 1.158.784c.818.205 1.125-.204 1.125-.204s.238-1.092.375-1.876c.17-.716.238-1.739-.648-1.875z" fill="#E4F2F2"/><path d="M9.402 114.568s-.102.17-.681-.069c-.58-.238-.716-.511-.716-.511s.137-1.159.512-.853c.34.273.886 1.433.886 1.433z" fill="#291D51"/><path d="M7.971 110.544c0 .614.034 1.057-.204 1.398-.239.307-.239.546-.239.546s.682.102 1.022.579c.341.478.341.921.648 1.023.306.068.852-.307.852-.307s-.341 0-.477-.443c-.137-.409-.477-1.33-.477-1.568v-1.16l-1.125-.068z" fill="#FFA8A7"/><path d="M7.972 112.079c.307.034.75.341.886.682s.409.818.579.92c.204.102.545-.034.818-.068.306 0 .51.136.51.341 0 0-.92.443-1.192.58-.272.136-.51.136-.715-.444-.205-.579-.307-.92-.477-.511-.17.409-.239 1.296-.239 1.296s-.238.102-.34-.137c0 0 0-.409-.035-.784-.034-.341-.374-.818-.34-1.228 0-.409.238-.647.545-.647z" fill="#2D2979"/><path d="M13.9 116.886s-.101.205-.715-.068c-.579-.239-.75-.546-.75-.546s.171-1.193.512-.886c.409.307.954 1.5.954 1.5z" fill="#291D51"/><path d="M12.435 112.727c0 .613.034 1.091-.204 1.432-.239.341-.273.545-.273.545s.716.103 1.057.58c.34.477.34.955.681 1.057.34.068.886-.307.886-.307s-.34 0-.477-.443c-.136-.444-.477-1.364-.511-1.637 0-.239-.068-1.227-.068-1.227h-1.09z" fill="#FFA8A7"/><path d="M12.436 114.329c.307.034.784.375.92.716.17.341.409.853.613.955.205.102.546-.034.852-.068.307 0 .511.136.545.341 0 0-.954.443-1.26.579-.273.137-.546.137-.75-.443-.239-.614-.307-.921-.477-.546-.17.41-.239 1.33-.239 1.33s-.238.103-.374-.136c0 0 0-.443-.034-.784-.068-.375-.375-.819-.375-1.262 0-.443.238-.716.58-.682z" fill="#2D2979"/><path d="M7.667 85.891c-.545.17-.852.75-1.33 2.046-.476 1.296-.987 3.171-.919 3.649.136 1.227.92 2.25 2.215 3.103l.579-1.058s-1.26-1.022-1.397-2.25c-.068-.682.818-3 .818-3.069l.034-2.42z" fill="#FFA8A7"/><path d="M7.257 106.929c0-1.125.239-1.875.239-1.875s-.477-2.284-.648-4.057c-.238-2.592-.715-3.24-.306-4.774.374-1.432.988-2.42 1.397-3.41l4.225.341s.375 1.194.852 3.615c.477 2.386.681 5.216.647 9.001 0 .989-.034 1.841-.068 4.262-.034 1.637-.068 3.819-.068 3.819-.648.375-1.193-.068-1.193-.068s-.988-4.842-1.158-5.933c-.17-1.159.136-1.841.136-1.841s-.307-1.5-.545-2.694c-.273-1.466-.988-4.603-.988-4.603s-.034 4.808-.103 5.762c-.068.955-.034 1.739-.204 3.035-.205 1.569-.409 4.194-.409 4.194-.681.171-1.158-.204-1.158-.204s-.648-3.206-.648-4.57z" fill="#7FA8E6"/><path d="M9.813 98.746s-.034 4.808-.102 5.762c0 .137 0 .239-.034.341v.069L9.2 99.292c-1.363-.41-1.806-1.296-1.806-1.296.92.886 2.42.75 2.42.75z" fill="#597BC6"/><path d="M7.942 85.857c.885-.068.988.103 1.056-.238.034-.103.068-.92.068-.92a3.349 3.349 0 01-.239-.342c-.579-.375-1.022-.989-1.09-1.739a2.33 2.33 0 012.079-2.557c1.192-.137 2.078.716 2.317 1.875.136.58.272 1.74-.103 2.66-.204.545-.374.886-.851.886-.103 0-.273-.034-.478-.068-.034.17-.034.443-.034.648 0 .239-.034.34.41.614.442.272-.682.852-1.432.784-.75-.068-1.567-.511-1.806-.989-.238-.443-.34-.58.103-.614z" fill="#FFA8A7"/><path d="M7.87 86.54c-.238-.546-.375-.683.068-.683.886-.068.989.103 1.057-.238.034-.103.068-.92.068-.92-.068-.069-.239-.342-.239-.342a2.01 2.01 0 01-.783-.818c.034-.034.068-.034.068-.034l1.942.989.34-.069.273-.306s.034.545.137.818c.102.239.681.545.681.545-.102.034-.204.069-.307.069-.102 0-.272-.035-.477-.069-.034.17-.034.444-.034.648 0 .239-.034.341.41.614.442.273-.682.852-1.432.784-.715-.034-1.533-.511-1.772-.989z" fill="#F28F8F"/><path d="M8.586 84.46c-.579-.546-.75-1.057-.852-1.808a2.33 2.33 0 012.079-2.557c.818-.102 1.5.273 1.908.92 0 0-.102.171-.204.308 0 0 .102.306-.069.511-.136.136-.17.375-.136.58.034.204.068.477.034.716-.034.34-.34.477-.34.477s-.035-.511-.17-.784c-.137-.273-.614-.341-.785.034-.17.375-.102.682.069 1.023.17.307.443.307.579.273.034.136 0 .58-.511.716s-.988 0-1.227-.137a3.67 3.67 0 01-.375-.272z" fill="#543354"/><path d="M11.177 80.436c.307-.068 1.193.136 1.193 1.057 0 .75-.511 1.296-1.159 1.466l-.034-2.523z" fill="#543354"/><path d="M8.826 85.823c-.17.205-.17.477.443.648.851.204 1.397-.102 1.397-.102s.851.375 1.465.784c1.43.989 1.772 2.728.34 3.341-.102.648-.204 2.319-.238 2.728-1.227.853-3.714.58-4.293-.34 0-.308-.068-.82-.102-.921-.58-2.183-1.057-2.762-.886-4.399.102-.955.17-1.398.681-1.67.34-.103 1.022-.069 1.193-.069z" fill="#F5FBFB"/><path d="M11.007 86.505l-.17-.511c-.034-.103-.136-.103-.136-.103s-.17.205-.716.137c-.545-.069-.988-.307-.954-.478v-.136s-.136-.034-.273.102c-.102.102-.272.341-.272.341s-.102.444.647.716a2.661 2.661 0 001.874-.068z" fill="#E4F2F2"/><path d="M17.852 97.143c-.306-.034-.545-.204-.954-.204-.374-.034-.613-.068-.92-.17-.34-.103-.715-.512-1.294-1.365-.716-.954-1.227-2.42-1.397-3.068-.307-1.398-.443-3.376-.443-4.058 0-.818-.375-1.16-.818-1.33-.511-.204-.852 0-.818 1.126.034 1.125.239 3.239.682 4.705a9.825 9.825 0 001.499 3.069c.613.886.852 1.125 1.67 1.841.204.205.34.375.715.818.375.41.92.819 1.363.955.443.136.647.136.715.034.103-.102.035-.204-.17-.307-.204-.102-.545-.204-.886-.511 0 0 .41.204.682.307.272.102.545.17.715.204.239.034.477-.238.273-.34-.205-.103-.375-.103-.75-.273-.34-.137-.579-.341-.579-.341s.443.17.818.204c.375.068.545 0 .681-.034.102-.034.205-.239-.068-.34-.238-.07-.545-.07-.988-.274-.307-.17-.511-.307-.443-.34.068-.035.238.068.545.068.273 0 .58-.171.545-.342-.034-.068-.068 0-.375-.034z" fill="#FFA8A7"/><defs><linearGradient id="paint0_linear" x1="13.987" y1="83.071" x2="18.011" y2="83.071" gradientUnits="userSpaceOnUse"><stop stop-color="#C8E2FF"/><stop offset=".178" stop-color="#C2DEFC"/><stop offset=".41" stop-color="#B2D1F4"/><stop offset=".671" stop-color="#97BCE7"/><stop offset=".952" stop-color="#729FD5"/><stop offset="1" stop-color="#6B99D1"/></linearGradient><linearGradient id="paint1_linear" x1="17.358" y1="85.027" x2="21.382" y2="85.027" gradientUnits="userSpaceOnUse"><stop stop-color="#C8E2FF"/><stop offset=".178" stop-color="#C2DEFC"/><stop offset=".41" stop-color="#B2D1F4"/><stop offset=".671" stop-color="#97BCE7"/><stop offset=".952" stop-color="#729FD5"/><stop offset="1" stop-color="#6B99D1"/></linearGradient><linearGradient id="paint2_linear" x1="20.732" y1="86.984" x2="24.755" y2="86.984" gradientUnits="userSpaceOnUse"><stop stop-color="#C8E2FF"/><stop offset=".178" stop-color="#C2DEFC"/><stop offset=".41" stop-color="#B2D1F4"/><stop offset=".671" stop-color="#97BCE7"/><stop offset=".952" stop-color="#729FD5"/><stop offset="1" stop-color="#6B99D1"/></linearGradient><linearGradient id="paint3_linear" x1="24.102" y1="88.941" x2="28.126" y2="88.941" gradientUnits="userSpaceOnUse"><stop stop-color="#C8E2FF"/><stop offset=".178" stop-color="#C2DEFC"/><stop offset=".41" stop-color="#B2D1F4"/><stop offset=".671" stop-color="#97BCE7"/><stop offset=".952" stop-color="#729FD5"/><stop offset="1" stop-color="#6B99D1"/></linearGradient><linearGradient id="paint4_linear" x1="49.033" y1="83.071" x2="45.01" y2="83.071" gradientUnits="userSpaceOnUse"><stop stop-color="#C8E2FF"/><stop offset=".178" stop-color="#C2DEFC"/><stop offset=".41" stop-color="#B2D1F4"/><stop offset=".671" stop-color="#97BCE7"/><stop offset=".952" stop-color="#729FD5"/><stop offset="1" stop-color="#6B99D1"/></linearGradient><linearGradient id="paint5_linear" x1="45.661" y1="85.027" x2="41.637" y2="85.027" gradientUnits="userSpaceOnUse"><stop stop-color="#C8E2FF"/><stop offset=".178" stop-color="#C2DEFC"/><stop offset=".41" stop-color="#B2D1F4"/><stop offset=".671" stop-color="#97BCE7"/><stop offset=".952" stop-color="#729FD5"/><stop offset="1" stop-color="#6B99D1"/></linearGradient><linearGradient id="paint6_linear" x1="42.29" y1="86.984" x2="38.266" y2="86.984" gradientUnits="userSpaceOnUse"><stop stop-color="#C8E2FF"/><stop offset=".178" stop-color="#C2DEFC"/><stop offset=".41" stop-color="#B2D1F4"/><stop offset=".671" stop-color="#97BCE7"/><stop offset=".952" stop-color="#729FD5"/><stop offset="1" stop-color="#6B99D1"/></linearGradient><linearGradient id="paint7_linear" x1="38.917" y1="88.941" x2="34.893" y2="88.941" gradientUnits="userSpaceOnUse"><stop stop-color="#C8E2FF"/><stop offset=".178" stop-color="#C2DEFC"/><stop offset=".41" stop-color="#B2D1F4"/><stop offset=".671" stop-color="#97BCE7"/><stop offset=".952" stop-color="#729FD5"/><stop offset="1" stop-color="#6B99D1"/></linearGradient><linearGradient id="paint8_linear" x1="62.229" y1="81.629" x2="33.34" y2="30.778" gradientUnits="userSpaceOnUse"><stop stop-color="#57F7E0"/><stop offset="1" stop-color="#57F7E0" stop-opacity="0"/></linearGradient><linearGradient id="paint9_linear" x1=".836" y1="81.828" x2="24.01" y2="40.643" gradientUnits="userSpaceOnUse"><stop stop-color="#57F7E0"/><stop offset="1" stop-color="#57F7E0" stop-opacity="0"/></linearGradient></defs></svg>