<svg width="16" height="11" viewBox="0 0 16 11" fill="none" xmlns="http://www.w3.org/2000/svg">
<path d="M0 1.49996C0 1.11781 0.242624 1.00008 0.540628 1.236L5.21005 4.93263C5.36019 5.05149 5.36231 5.24352 5.21005 5.36532L0.540628 9.10086C0.242047 9.33973 0 9.22283 0 8.84141V1.49996ZM15.8667 8.84141C15.8667 9.22357 15.624 9.33927 15.326 9.10086L10.6566 5.36532C10.5065 5.24521 10.5044 5.05317 10.6566 4.93263L15.326 1.236C15.6246 0.999626 15.8667 1.11855 15.8667 1.49996V8.84141ZM1.87783 10.3478C1.49825 10.3478 1.4296 10.1566 1.7282 9.9177L6.32413 6.24095C6.47207 6.1226 6.71103 6.1209 6.86343 6.24155L6.85062 6.23141C7.44858 6.7048 8.41759 6.70519 9.01605 6.23141L9.00324 6.24155C9.15315 6.12287 9.39764 6.12504 9.54254 6.24095L14.1385 9.9177C14.4354 10.1553 14.3691 10.3478 13.9888 10.3478H1.87783ZM8.74527 4.68605C8.29685 5.04105 7.57144 5.04233 7.1214 4.68605L1.74164 0.427073C1.4437 0.191207 1.50865 0 1.89295 0H13.9737C14.3552 0 14.4249 0.189656 14.125 0.427073L8.74527 4.68605Z" fill="white"/>
</svg>
