<svg width="76" height="102" fill="none" xmlns="http://www.w3.org/2000/svg"><path d="M0 17.96l.025 18.198L23.18 23.594l-.025-18.031L0 17.959z" fill="#DCEEFF" fill-opacity=".5"/><path d="M17.616 17.896l.035 26.12 32.233-18.032L49.85.104 17.617 17.896z" fill="#DCEEFF"/><path d="M49.92 0v2.443L17.686 20.477v-2.685L49.92 0z" fill="#2B3D89"/><path d="M47.944 5.003L48 25.51 20.677 41.003 20 20.609 47.944 5.003z" fill="#4495B6"/><path d="M34.486 18.828a1 1 0 00-1.486.874v5.695c0 .917 1.13 1.35 1.743.669l3.417-3.796a1 1 0 00-.258-1.543l-3.416-1.899zM47.549 2.478c0 .138.104.275.279.275.14 0 .279-.103.279-.275a.273.273 0 00-.28-.275c-.139 0-.278.137-.278.275zM46.71 2.856c0 .138.105.276.28.276.139 0 .278-.104.278-.276a.273.273 0 00-.279-.275c-.14 0-.279.138-.279.275zM48.313 2.1c0 .137.104.275.279.275.14 0 .279-.104.279-.276a.273.273 0 00-.28-.275c-.174 0-.313.138-.278.275z" fill="#F8F9FB"/><path d="M7.419 53.869l.035 26.12 32.233-18.033-.034-25.88L7.419 53.87z" fill="#DCEEFF"/><path d="M39.723 35.973v2.443L7.489 56.45v-2.684l32.234-17.792z" fill="#2B3D89"/><path d="M37.63 45.196l-.035-1.618-16.954 9.292.07 1.72 16.92-9.394zM32.4 59.444v1.686l-10.326 5.816v-1.72L32.4 59.444zM38.54 58.996v1.72l-10.326 5.782v-1.686l10.326-5.816zM15.756 68.356v1.858l-6.977 4.302v-1.858l6.977-4.302zM16.036 71.282v1.859l-6.942 4.336v-1.893l6.942-4.302zM38.395 56.174v1.72l-5.163 2.892v-1.687l5.163-2.925z" fill="#AAD1FC"/><path d="M15.72 66.773l.036-11.39-6.977 3.82v11.734l6.942-4.164z" fill="#42E8E0"/><path d="M37.352 38.45c0 .138.104.276.279.276.14 0 .279-.104.279-.276a.273.273 0 00-.28-.275c-.139 0-.278.138-.278.275zM36.513 38.83c0 .137.105.275.28.275.139 0 .278-.104.278-.276a.273.273 0 00-.279-.275c-.14 0-.279.138-.279.275zM38.123 38.072c0 .138.105.275.28.275.139 0 .278-.103.278-.275a.273.273 0 00-.279-.275.273.273 0 00-.279.275z" fill="#F8F9FB"/><path d="M17.465 65.947s1.5-7.57 3.628-7.915c2.128-.344 1.57 2.237 3.35 1.273 1.778-.998 1.883-7.227 4.115-7.227 0 0 1.152-.413 1.745 1.756.558 2.168 1.22 3.269 2.546 2.099 1.36-1.17 1.71-4.956 3.07-5.093 1.36-.138 2.198 2.89 2.198 3.51L17.465 65.947z" fill="url(#paint0_linear)"/><path opacity=".15" d="M27.154 75.874l7.538-4.39c5.136-2.982 12.26-3.645 15.822-1.574 3.644 2.07 2.402 6.212-2.734 9.112l-7.538 4.39c-5.136 2.899-12.177 3.644-15.821 1.574-3.645-2.071-2.402-6.213 2.733-9.112z" fill="#6B99D1"/><path d="M38.254 79.436s.332.497 1.905-.166c1.657-.662 2.071-1.49 2.071-1.49s-.414-3.314-1.408-2.486c-.994.829-2.568 4.142-2.568 4.142z" fill="#291D51"/><path d="M42.312 67.922c0 1.74-.083 3.065.58 3.976.662.911.745 1.574.745 1.574s-1.988.248-2.899 1.574c-.994 1.325-.911 2.65-1.822 2.899-.911.248-2.485-.828-2.485-.828s.994 0 1.325-1.243c.414-1.242 1.325-3.81 1.408-4.473v-3.313l3.148-.166z" fill="#FFA8A7"/><path d="M42.312 72.395c-.828.083-2.154.994-2.568 1.988-.414.994-1.16 2.32-1.74 2.65-.58.332-1.49-.165-2.319-.165-.828 0-1.408.414-1.49.994 0 0 2.65 1.242 3.478 1.657.829.414 1.491.414 2.071-1.243.663-1.657.829-2.568 1.326-1.491.497 1.16.745 3.645.745 3.645s.663.248.994-.415c0 0 0-1.16.083-2.236.166-.994 1.077-2.32.994-3.562.083-1.16-.58-1.905-1.574-1.822z" fill="#2D2979"/><path d="M41.153 51.438s-.249 1.242-.249 2.236c1.16 3.065 1.657 12.425 1.408 16.153 0 0-1.656.663-3.23-.331 0 0-2.237-9.03-3.562-14.91-.497-2.154 1.408-3.977 3.562-3.563l2.07.415z" fill="#AACAF9"/><path d="M29.723 82.666s.331.497 1.905-.165c1.657-.663 2.07-1.491 2.07-1.491s-.413-3.314-1.407-2.485c-.994.828-2.568 4.141-2.568 4.141z" fill="#291D51"/><path d="M33.864 71.152c0 1.74-.083 3.065.58 3.976.662.912.745 1.574.745 1.574s-1.988.249-2.9 1.574c-.993 1.326-.91 2.65-1.822 2.9-.91.248-2.485-.829-2.485-.829s.994 0 1.326-1.242c.414-1.243 1.325-3.81 1.408-4.474v-3.313l3.148-.166z" fill="#FFA8A7"/><path d="M33.864 75.543c-.828.082-2.154.993-2.568 1.988-.414.994-1.16 2.319-1.74 2.65-.58.332-1.49-.165-2.319-.165-.828 0-1.408.414-1.49.994 0 0 2.65 1.242 3.478 1.656.828.415 1.491.415 2.071-1.242.663-1.657.828-2.568 1.325-1.491.497 1.16.746 3.644.746 3.644s.663.249.994-.414c0 0 0-1.16.083-2.236.165-.994 1.077-2.32.994-3.562 0-1.16-.663-1.905-1.574-1.822z" fill="#2D2979"/><path d="M32.539 55h1.49s1.078.58 1.078 1.573c1.16 1.822-.746 9.36-1.243 16.65 0 0-1.325 1.16-3.23.248 0 0-1.16-12.094-1.409-14.91" fill="#C4D9FF"/><path opacity=".15" d="M74.62 88.05L55.817 77.2c-1.16-.663-3.065-.663-4.225 0L32.706 88.05c-1.16.663-1.16 1.74 0 2.403l18.886 10.851c1.16.663 3.065.663 4.225 0l18.886-10.851c1.077-.663 1.077-1.74-.083-2.403z" fill="#6B99D1"/><path d="M74.62 65.437L55.818 54.503c-1.16-.663-3.065-.663-4.224 0L32.706 65.436c-1.16.662-1.16 1.74 0 2.402L51.592 78.69c1.16.663 3.065.663 4.225 0L74.703 67.84c1.077-.663 1.077-1.74-.082-2.402z" fill="#DCEEFF"/><path d="M53.663 54.834c.663 0 1.243.165 1.657.414l18.886 10.851c.331.166.497.414.497.497 0 .083-.083.332-.497.497L55.403 78.027c-.415.249-1.077.415-1.657.415-.663 0-1.243-.166-1.657-.415L33.12 67.177c-.331-.167-.497-.415-.497-.498 0-.083.083-.331.497-.497l18.886-10.851c.414-.332.994-.497 1.657-.497zm0-.829c-.745 0-1.491.166-2.07.497L32.705 65.437c-1.16.662-1.16 1.74 0 2.402L51.592 78.69c.58.332 1.325.497 2.071.497.745 0 1.491-.165 2.07-.497L74.62 67.84c1.16-.663 1.16-1.74 0-2.402L55.817 54.502c-.58-.331-1.409-.497-2.154-.497z" fill="#fff"/><path d="M75.53 85.648c0 .497-.33.912-.91 1.243L55.816 97.825c-.58.331-1.242.497-2.07.497V79.27c.828 0 1.49-.166 2.07-.497l18.886-10.851c.497-.249.912-.663.912-1.243v18.97h-.083z" fill="#C8E2FF"/><path d="M31.794 85.648c0 .497.332.911.912 1.243l18.886 10.851c.58.331 1.242.497 2.07.497V79.187c-.828 0-1.49-.166-2.07-.497L32.706 67.84c-.497-.249-.912-.663-.912-1.243v19.052z" fill="#A5CBFA"/><path d="M47.948 29.818s-1.905-1.077-1.74-2.734c.166-1.657 2.734-5.716 7.207-3.728 4.225.912-5.467 6.462-5.467 6.462z" fill="#543354"/><path d="M57.722 37.604c-2.154-.166-1.988-.331-2.154-1.077-.083-.248-.166-2.154-.166-2.154.166-.165.497-.828.497-.828 1.409-.828 2.403-2.32 2.568-4.142.332-3.064-1.905-5.715-4.887-6.047-2.816-.33-4.97 1.74-5.55 4.473-.331 1.326-.58 4.142.249 6.379.497 1.242.91 2.154 2.07 2.07.249 0 .663-.082 1.16-.165.083.414.083.994.083 1.574 0 .58.083.828-.994 1.49-1.077.663 1.657 1.989 3.396 1.906 1.74-.166 3.728-1.16 4.308-2.32.58-1.325.497-1.076-.58-1.159z" fill="#FFA8A7"/><path d="M56.562 33.13l-1.822.084h-1.988l-.663-.746s-.166 2.32-.745 2.9c-.58.58-1.409.828-1.491.91.165.084.331.084.58.084.248 0 .662-.083 1.16-.166.082.414.082.994.082 1.574 0 .58.083.828-.994 1.49-1.077.663 1.657 1.989 3.396 1.906 1.74-.166 3.728-1.16 4.308-2.32.58-1.242.497-1.076-.497-1.16-2.154-.165-1.988-.33-2.154-1.076-.083-.248-.166-2.154-.166-2.154.166-.165.497-.828.497-.828.083-.166.332-.331.497-.497z" fill="#F28F8F"/><path d="M41.155 51.437c1.988.746 14.745 5.799 14.745 5.799s-.497 9.526-3.397 7.952L39.415 57.65l-3.562-2.402c-.33-3.065 3.148-4.556 5.302-3.81z" fill="#AACAF9"/><path d="M29.226 58.561c-.331-3.148 2.485-4.887 4.639-4.059 1.988.746 13.916 5.799 13.916 5.799l13.916-1.408c1.16 6.295-3.727 8.78-7.455 10.52-2.485 1.16-7.04.91-9.857-.663L32.042 60.3" fill="#C4D9FF"/><path d="M27.073 54.502c0 .332.165.663.497.829l8.697 5.052a.897.897 0 00.912 0l12.26-7.04c.248-.166.496-.497.496-.829v-.083l-22.862 2.071z" fill="#C8E2FF"/><path d="M38.752 59.14l9.36-5.383h.083c0 .082-.083.165-.083.165l-9.36 5.385h-.083c0-.083 0-.166.083-.166zM27.57 55.33l8.697 5.053c.166.083.332.166.497.166v-5.964h-9.691c0 .249.165.58.497.746z" fill="#A5CBFA"/><path d="M36.02 60.218l.248.165a.898.898 0 00.911 0l.249-.165v-.58h-1.491v.58h.083z" fill="#B7D6FD"/><path d="M36.433 59.97c.166.082.414.082.663 0l12.756-7.373c.166-.083.166-.248 0-.331l-9.36-5.384-13.42 7.62 9.361 5.467z" fill="#EFF6FE"/><path d="M28.647 54.668l-.331-.166c-.083 0-.083-.083 0-.083l11.845-6.875h.166l.33.166c.084 0 .084.083 0 .083l-11.844 6.875h-.166z" fill="#D2EAFF"/><path d="M44.634 54.502l-.083.083-4.141 2.32-2.237-1.243v-.083l4.142-2.402 2.32 1.325z" fill="#97C3F4"/><path d="M44.552 54.585l-4.142 2.32-2.237-1.243 4.142-2.402 2.237 1.325z" fill="#D2EAFF"/><path d="M41.986 53.508c.58.332.828 1.906-1.657 3.397l.166.082 4.058-2.319-2.236-1.325-.331.165z" fill="#AAD1FC"/><path d="M45.38 50.609L33.617 57.4h-.166L29.31 55c-.083 0-.083-.083 0-.083l11.762-6.792h.166l4.224 2.402s0 .083-.082.083z" fill="#97C3F4"/><path d="M45.38 50.609L33.617 57.4h-.165L29.31 55l11.763-6.792h.165l4.142 2.402z" fill="#AAD1FC"/><path d="M27.073 54.502L40.41 46.8V36.362l-.083-.249-.083-.083a.897.897 0 00-.911 0l-12.26 7.041c-.248.166-.497.497-.497.829v9.857c.166.497.249.58.497.745z" fill="#A5CBFA"/><path d="M28.315 44.396l12.094-7.703v-.331l-.083-.249-.083-.083a.898.898 0 00-.91 0l-12.26 7.041c-.166.083-.249.249-.332.331l1.574.994z" fill="#C8E2FF"/><path d="M26.66 44.397l.828.497.994-1.326-.994-.58-.331.166c-.249.166-.414.497-.414.745v.498h-.083z" fill="#B7D6FD"/><path d="M40.162 36.113l-12.839 7.372a.455.455 0 00-.248.414v10.686l13.336-7.704V36.28c0-.166-.166-.249-.249-.166z" fill="#DCEEFF"/><path d="M40.162 36.113l-12.839 7.372a.455.455 0 00-.248.414v10.686l13.336-7.704V36.28c0-.166-.166-.249-.249-.166z" fill="#DCEEFF"/><path opacity=".2" d="M40.163 36.113l-1.49.828-.498.249c0 2.65-.248 9.36-10.934 15.655v1.574l13.17-7.62v-10.52c0-.166-.165-.249-.248-.166z" fill="#94C3FB"/><path opacity=".2" d="M27.075 54.502v-.331l13.336-7.704v.332l-13.337 7.703z" fill="#94C3FB"/><path d="M40.079 46.302V36.61l-.166.166v9.443l.166.083z" fill="#1E3779"/><path d="M39.913 36.776v9.443l-12.426 7.123V43.9l12.426-7.123z" fill="#344593"/><path d="M40.078 46.302l-12.59 7.206v-.166l12.425-7.123.165.083z" fill="#031F60"/><path d="M39.913 36.776l-1.74.993c-.083 2.9-.911 9.112-10.686 14.91v.663l12.426-7.123v-9.444z" fill="#2B3D89"/><path d="M55.734 37.273c.414.497.497.828-.58 1.242-1.905.828-3.727-.083-3.727-.083s-1.74.911-3.148 1.905c-3.396 2.403-4.224 6.296-.828 7.704.248 1.574 1.242 3.645 1.242 4.556-.165 2.734-.994 3.562-1.574 9.857 1.409 1.574 4.722 2.485 7.704 1.574 3.81-1.16 5.881-3.976 6.875-5.218-.58-3.894-2.816-6.379-2.816-7.455.083-4.225 1.574-6.876 1.16-10.769-.249-2.236-1.077-3.148-2.32-3.396-.58-.083-1.574 0-1.988.083z" fill="#F5FBFB"/><path d="M30.387 51.852c.58.331 1.242.497 2.07 1.077.746.496 1.078.662 1.823.828.911.166 2.9 0 5.716-.414 2.816-.415 4.473-1.657 5.384-2.9 1.988-2.899 1.74-6.295 2.485-8.863.497-1.822 1.988-2.154 2.816-1.49.663.579 1.409 2.898.746 6.377-.497 2.568-1.988 6.213-4.225 7.87-1.408 1.076-3.561 1.905-5.135 2.236-2.651.497-4.722.58-7.29.663-.663 0-1.242.248-2.485.497-1.325.248-2.9.166-3.976-.249-1.077-.414-1.325-.662-1.408-.91 0-.332.248-.415.745-.332.497.083 1.326.414 2.403.331 0 0-1.077-.248-1.74-.414-.663-.166-1.242-.497-1.657-.745-.497-.332-.497-1.16 0-1.077.497.082.829.331 1.823.58.91.248 1.574.248 1.574.248s-.994-.331-1.823-.828c-.828-.415-1.077-.829-1.16-1.077-.165-.249 0-.746.58-.497.497.248 1.16.745 2.237.994.828.166 1.408.166 1.325 0-.082-.166-.58-.166-1.077-.663-.497-.414-.828-1.16-.497-1.408.166-.249.083-.249.746.166z" fill="#FFA8A7"/><path d="M56.563 33.794c1.408-1.243 1.822-2.485 1.988-4.308.331-3.065-1.906-5.715-4.888-6.047-1.988-.165-4.058.497-5.052 2.982 0 0 .165.332.662.414 0 0-.166.663.331 1.16.332.331.663.911.663 1.574 0 .497-.083 1.325.083 1.822.248.663.994.58.994.58s.083-1.16.166-2.236c.331-.746 1.74-.912 1.988.082.248.912 0 1.491-.332 2.154-.248.497-.662.746-1.076.58 0 1.325.496 1.988 1.74 2.32 1.159.33 1.324-.083 1.904-.415.332-.248.829-.662.829-.662z" fill="#543354"/><path d="M52.09 32.468v13.005s1.575 1.326 4.06.166c2.485-1.16 2.402-1.657 2.402-2.982V28.824s-2.816 3.313-4.804 3.976c-1.491.58-1.657-.332-1.657-.332z" fill="#543354"/><path d="M49.852 39.675c.994.083 1.988.663 2.07 4.804.166 4.142-2.319 8.035-4.307 9.775-1.988 1.74-6.047 2.982-9.94 2.816 0 0-1.408-1.325-.248-3.396 0 0 2.899-.331 4.721-1.077 1.823-.745 3.396-1.822 4.473-5.384 1.077-3.645.497-7.455 3.23-7.538z" fill="#E4F2F2"/><defs><linearGradient id="paint0_linear" x1="27.791" y1="50.835" x2="31.736" y2="58.013" gradientUnits="userSpaceOnUse"><stop stop-color="#00F2FF"/><stop offset="1" stop-color="#DCEEFF"/></linearGradient></defs></svg>