<svg width="73" height="113" fill="none" xmlns="http://www.w3.org/2000/svg"><path opacity=".15" d="M72.46 84.704l-12.04-6.86c-.727-.41-1.973-.41-2.7 0l-12.092 6.86c-.727.41-.727 1.127 0 1.536l12.04 6.86c.727.41 1.973.41 2.7 0l12.04-6.86c.78-.41.78-1.126.052-1.536zM54.295 91.36l-4.255-2.406c-2.855-1.638-6.851-2.048-8.876-.87-2.024 1.177-1.349 3.43 1.557 5.068l4.256 2.407c2.855 1.638 6.851 2.047 8.876.87 2.024-1.178 1.297-3.43-1.558-5.069z" fill="#6B99D1"/><path d="M45.367 71.341l12.041-6.86c.727-.41 1.973-.41 2.7 0L72.2 71.34c.727.41.727 1.127 0 1.536l-12.093 6.861c-.726.41-1.972.41-2.699 0l-12.04-6.86c-.727-.41-.727-1.127 0-1.537z" fill="#DCEEFF"/><path d="M58.758 64.686c.415 0 .83.102 1.09.256l12.041 6.86c.208.103.311.256.311.307 0 .052-.103.205-.311.308l-12.041 6.912c-.26.153-.675.256-1.09.256-.415 0-.83-.103-1.09-.256l-12.041-6.861c-.208-.103-.311-.256-.311-.307 0-.052.103-.205.311-.308l12.041-6.911a2.44 2.44 0 011.09-.256zm0-.512c-.467 0-.986.102-1.35.307l-12.04 6.86c-.727.41-.727 1.127 0 1.536l12.04 6.861c.364.205.883.307 1.35.307.467 0 .986-.102 1.35-.307l12.092-6.86c.727-.41.727-1.127 0-1.537l-12.093-6.86c-.363-.205-.83-.307-1.349-.307z" fill="#fff"/><path d="M44.8 84.14c0 .308.207.564.57.769l12.041 6.86c.364.205.779.308 1.35.308v-11.98c-.52 0-.986-.103-1.35-.308l-12.04-6.912c-.312-.153-.572-.41-.572-.768v12.032z" fill="#A5CBFA"/><path d="M72.722 84.14c0 .308-.208.564-.57.769l-12.042 6.86c-.363.205-.779.308-1.35.308v-11.98c.52 0 .987-.103 1.35-.308l12.093-6.912c.311-.153.57-.41.57-.768v12.032h-.051z" fill="#C8E2FF"/><path d="M42.203 64.788c.467 0 .83-.154 1.505-.102.57.05.934.05 1.453 0 .519-.103 1.868-1.23 3.01-2.304 1.298-1.28 2.44-3.124 2.75-4.096.52-1.639 1.298-4.967 1.662-6.093.363-1.126.934-1.382 1.609-1.485.83-.153 1.349.154 1.038 1.792-.416 1.69-1.194 4.864-2.232 6.963-.52 1.024-1.453 2.56-3.114 4.198-1.142 1.127-2.232 1.844-3.633 2.663-.364.256-.623.512-1.246 1.024-.675.512-1.557.973-2.284 1.075-.726.102-.986.051-1.09-.102-.103-.154 0-.308.312-.41.311-.102.882-.154 1.453-.563 0 0-.675.205-1.09.307-.415.102-.83.102-1.142.102-.363 0-.674-.511-.363-.563.311-.102.571-.102 1.194-.204.57-.154.934-.359.934-.359s-.675.103-1.297.103c-.571 0-.83-.103-.987-.205-.155-.103-.26-.41.156-.461.363-.051.882.051 1.557-.205.52-.153.83-.358.727-.41-.104-.05-.364.052-.83 0-.416-.05-.831-.41-.727-.614.155-.205.207-.051.675-.051z" fill="#FFA8A7"/><path d="M54.245 50.504c-.83-.154-1.505.563-1.92 1.74-.416 1.178-.935 3.687-1.246 4.557-.312.87-.467 1.587-.467 1.587s1.401 1.178 2.906.87c0 0 .986-2.61 1.453-4.812.52-2.253.727-3.635-.726-3.942z" fill="#E4F2F2"/><path d="M52.012 58.798c-.83-.256-1.297-.82-1.297-.82l.052-.307s-.156 0-.415.666c-.26.666-.312 1.126-.208 1.28.623.922 2.543 1.331 2.907.82.259-.36.882-1.332.674-1.742l-.104.308s-.57.102-1.609-.205z" fill="#F5FBFB"/><path d="M47.185 86.19s.052.46.156.819c.104.358.207.972.104 1.28-.052.307-.935.716-1.402.767-.467.052-1.245.564-1.505.922-.415.512-1.453.87-2.128.768-.674-.051-1.453-.256-1.609-.512-.156-.256.052-.563 1.453-1.587 1.402-.973 2.336-1.587 2.803-2.509l2.128.051zM52.325 95.66c-.364.513-.986.769-1.557.82-.312.051-.675.051-.986.051-.364 0-.883-.205-.83-.614 0-.154.103-.256.155-.359.57-.716 1.142-1.382 1.66-2.15.572-.819 1.142-1.638 1.35-2.867h2.128c0 .154.052.41.104.666.052.256.104.46.156.665.103.461.155.922-.052 1.383-.156.307-.52.512-.83.716-.572.461-.883 1.075-1.298 1.69z" fill="#2D2979"/><path d="M62.339 67.962c.778 4.762-1.713 6.144-4.048 7.885-1.92 1.434-3.79 2.509-3.79 2.509s.208 1.126.26 3.43c0 2.048-.519 8.755-.519 8.755s-1.142.563-2.128 0c0 0-.726-5.069-1.038-7.629-.467-3.635-.882-5.273-.674-6.041.155-.666 3.218-3.994 3.944-5.12l-6.799 3.891s.208 1.69.208 2.97c-.052 2.764-.52 7.628-.52 7.628s-1.141.82-2.075 0c0 0-2.128-11.366-2.128-12.339 0-1.536 6.228-5.324 7.577-6.246 1.142-.717 2.388-1.69 2.388-1.69l9.342 1.997z" fill="#7FA8E6"/><path d="M54.296 71.75s-1.09-.818-1.557-2.2c0 0 .052.92.26 1.638.207.716-5.502 4.403-5.502 4.403l6.8-3.84z" fill="#597BC6"/><path d="M59.538 49.838s-.104 2.253-.052 2.457c.052.205 1.038.87 1.349 1.076.311.256-1.557 2.048-2.491 2.457-.934.41-3.789-.665-3.84-2.048-.053-1.382.518-2.56.933-2.61.416-.052 4.1-1.332 4.1-1.332z" fill="#FFA8A7"/><path d="M56.268 52.45c-.312-.257.363-1.127.57-1.537.935-.256 2.7-1.024 2.7-1.024s0 .512-.052.87c0 .41-.26.87-.623 1.127-.26.205-.571.41-1.038.563-.312.102-1.09.41-1.557 0z" fill="#F28F8F"/><path d="M59.797 52.5s-1.661 2.458-3.997 2.662c-.726-.716-.778-3.225.208-4.044 0 0-.934-.717-1.557-.615 0 0-.986.512-1.453 1.792-.416 1.28-.883 2.816-.83 5.222.051 2.663.31 9.78.259 8.55 0 0-.312 1.28 1.816 2.407 2.076 1.126 4.049 1.69 5.45 1.331 1.194-.256 2.44-.973 2.595-1.894-.104-1.69-.467-4.455-.208-6.605.26-2.099.26-3.84.364-5.58.103-1.69-.208-1.69-1.09-2.304-1.09-.717-1.557-.922-1.557-.922z" fill="#F5FBFB"/><path d="M55.854 55.162s-.207-1.075-.207-1.69c.052-.767.623-1.791.623-1.791v-.615s-.468.052-.83.564c-.416.46-.987 1.484-.831 2.508 0-.05.26.512 1.245 1.024z" fill="#E4F2F2"/><path d="M55.852 55.162c-.155-.307-.467-1.382-.622-1.587-.312-.102-.571.512-.571.512s0 .615.415.973c.311.358.778.102.778.102z" fill="#F5FBFB"/><path d="M55.175 53.575c.156.154.468 1.229.623 1.587 0 0-.155-.307-.363-.512-.156-.204-.363-.614-.882-.563.052 0 .311-.614.623-.512z" fill="#C8DBDA"/><path d="M60.525 44.923s.208-.666-.675-1.383c-1.09-.819-2.595-.614-4.152 0-1.038.41-2.595-.102-2.284 1.075.468 1.69 3.737 1.844 5.19.666.053-.051 1.09-.512 1.921-.358z" fill="#543354"/><path d="M59.486 51.681c-.051.358-1.92 1.69-2.335 1.894-.467.154-1.298 1.588-1.298 1.588.675-.103 1.194.153 1.713.665 0 0 2.647-1.075 3.062-2.867 0 0-.467-.922-.57-1.178-.053-.255-.26-.511-.572-.511v.41z" fill="#E4F2F2"/><path d="M57.514 55.828s-.208-1.331-.467-1.485c-.26-.102-1.194.82-1.194.82.364.306.83.614 1.661.665z" fill="#F5FBFB"/><path d="M57.046 54.343c.26.102.467 1.485.467 1.485s-.727-.666-.986-.717c-.208-.051-.727.102-.727.102s.934-.972 1.246-.87z" fill="#C8DBDA"/><path d="M54.345 46.51c.26-1.741 1.557-3.072 3.373-2.97a3.477 3.477 0 013.322 3.687 3.354 3.354 0 01-1.557 2.662s-.156.614-.26.768c-.622.768-2.594 1.229-3.165 1.126-.727-.102-1.09-.41-1.454-1.177-.57-1.434-.363-3.277-.26-4.096z" fill="#FFA8A7"/><path d="M54.659 45.076c.778-1.127 2.127-1.792 3.633-1.485 1.505.307 2.647 1.587 2.802 3.072a3.475 3.475 0 01-1.505 3.174c.052-.102.986-1.485 0-1.792-.155.154-.207.461-.207.717 0 0-.468-.051-.364-.563.052-.154.052-.307.104-.41.104-.41 0-.87-.26-1.228-.207-.308-.363-.666-.259-1.127 0 0-1.194.512-2.699.205-.675-.154-1.09-.358-1.245-.563z" fill="#543354"/><path d="M60.988 72.98c.363-.256.571-.615 1.142-.973.467-.307.675-.46.934-.87.312-.461.675-2.048.83-3.584.208-1.792-.207-4.096-.518-5.018-.623-1.945-1.973-4.557-2.388-5.683-.415-1.126-.156-1.638.312-2.15.519-.615 1.453-.615 2.283.921.83 1.485 1.972 4.301 2.491 6.554.26 1.075.52 2.867.312 5.17-.156 1.588-.571 2.817-1.09 4.353-.156.41-.156.768-.312 1.587-.155.82-.57 1.74-1.09 2.253-.467.512-.726.614-.882.563-.207-.051-.207-.256 0-.512.208-.256.571-.666.779-1.331 0 0-.415.614-.675.921-.26.359-.57.615-.83.82-.312.204-.83.05-.623-.257.207-.255.415-.41.778-.921.364-.46.52-.87.52-.87s-.468.511-.935.87c-.467.358-.727.41-.882.46-.156.052-.467-.153-.156-.46.26-.256.675-.512 1.09-1.126.311-.41.415-.768.311-.768-.103 0-.26.255-.674.511-.364.205-.883.205-.986 0-.156-.255-.104-.204.26-.46z" fill="#FFA8A7"/><path d="M61.351 54.241c-.727.358-.882 1.331-.519 2.509.363 1.177 1.453 3.481 1.713 4.403.26.921.57 1.536.57 1.536s1.817.153 2.855-1.024c0 0-.778-2.714-1.713-4.762-.882-2.048-1.557-3.276-2.906-2.662z" fill="#E4F2F2"/><path d="M64.52 62.176c-.83.256-1.557.103-1.557.103l-.103-.256s-.104.102.051.768c.208.717.416 1.075.623 1.126 1.038.359 2.855-.41 2.855-1.024 0-.41-.104-1.587-.52-1.792l.105.307s-.416.461-1.454.768z" fill="#F5FBFB"/><path d="M59.536 49.838s.104.204.416.204c.622.052 1.4-1.126.882-1.945-.312-.512-1.038-.307-1.298-.051v1.792z" fill="#FFA8A7"/><path d="M43.71 70.47l5.5-3.122a.335.335 0 01.312 0l9.602 5.478-5.657 3.226-9.758-5.581z" fill="#EFF6FE"/><path d="M53.517 75.591l2.959-1.69-8.616-4.915-2.958 1.69 8.615 4.915z" fill="#AAD1FC"/><path d="M54.968 70.932h-.052l-1.453.87-2.543-1.485-.052-.051 1.505-.82 2.595 1.486z" fill="#AEB5B7"/><path d="M54.917 70.932l-1.453.87-2.543-1.485 1.453-.819 2.543 1.434z" fill="#AAD1FC"/><path d="M59.124 72.826v.102a.536.536 0 01-.26.461l-5.086 2.919c-.104.05-.156.05-.26.05-.103 0-.207 0-.259-.05l-9.29-5.223a.536.536 0 01-.26-.46v-.103l9.758 5.58 5.657-3.276z" fill="#C8E2FF"/><path d="M53.467 76.052v.358c-.104 0-.208 0-.26-.051l-9.238-5.274a.536.536 0 01-.26-.46v-.103l9.758 5.53z" fill="#AAD1FC"/><path d="M53.362 76.155a.622.622 0 01-.519-.051l-9.238-5.222a.797.797 0 01-.311-.41l-.987-5.99v-.103c0-.153.052-.307.208-.46l9.55 5.427c.104.05.208.204.208.307l1.09 6.502z" fill="#EFF6FE"/><path d="M53.465 76.052l-.052.05c-.052 0-.052.052-.104.052l-1.09-6.4c0-.154-.104-.256-.208-.307l-9.55-5.478c.053-.052.105-.052.105-.103l9.601 5.478c.104.052.208.205.208.308l1.09 6.4z" fill="#C8E2FF"/><path d="M48.172 70.676c-.052-.41-.467-.922-.934-1.177-.467-.256-.727-.154-.675.255.052.41.467.922.934 1.178.416.256.727.154.675-.256z" fill="#AAD1FC"/><path opacity=".15" d="M9.547 91.33c-8.218 4.714-8.218 12.39 0 17.165 8.217 4.715 21.511 4.715 29.669 0 8.218-4.714 8.218-12.39 0-17.166-8.218-4.714-21.512-4.714-29.67 0z" fill="#6B99D1"/><path d="M41.451 90.725l-.302-.544h-.423a16.628 16.628 0 00-1.692-1.148c-8.097-4.715-21.27-4.715-29.367 0-.604.362-1.208.725-1.692 1.148h-.423l-.302.544c-1.39 2.538-3.686 5.984-3.686 6.77 0 3.082 1.994 6.165 6.103 8.522 8.097 4.715 21.27 4.715 29.367 0 4.049-2.357 6.103-5.44 6.103-8.462 0-.967-1.934-4.473-3.686-6.83z" fill="url(#paint0_linear)"/><path d="M39.034 85.467c-.725-.786-1.631-1.451-2.78-2.116-6.586-3.808-17.22-3.808-23.746 0a13.362 13.362 0 00-2.78 2.116H7.553v4.714c0 2.478 1.631 4.957 4.894 6.83 6.587 3.808 17.221 3.808 23.747 0 3.263-1.873 4.895-4.352 4.895-6.83v-4.714h-2.055z" fill="url(#paint1_linear)"/><path d="M12.508 79.18c-6.587 3.809-6.587 9.913 0 13.721 6.586 3.808 17.22 3.808 23.747 0 6.526-3.808 6.586-9.912 0-13.72-6.587-3.748-17.222-3.748-23.748 0z" fill="#DCEEFF"/><path d="M24.351 76.944c4.411 0 8.52.967 11.602 2.78 2.96 1.693 4.592 3.99 4.592 6.347s-1.631 4.594-4.592 6.347c-3.082 1.752-7.19 2.78-11.602 2.78-4.411 0-8.52-.967-11.602-2.78-2.96-1.693-4.592-3.99-4.592-6.347s1.631-4.594 4.592-6.347c3.142-1.813 7.251-2.78 11.602-2.78zm0-.604c-4.29 0-8.58.967-11.904 2.84-6.586 3.808-6.586 9.913 0 13.721 3.263 1.874 7.553 2.84 11.904 2.84 4.29 0 8.58-.966 11.904-2.84 6.586-3.808 6.586-9.913 0-13.72-3.263-1.874-7.614-2.841-11.904-2.841z" fill="#fff"/><path opacity=".4" d="M7.553 86.071c0 2.478 1.631 4.956 4.894 6.83 6.587 3.808 17.221 3.808 23.747 0 3.263-1.874 4.895-4.352 4.895-6.83V0H7.553v86.071z" fill="url(#paint2_linear)"/><path opacity=".5" d="M7.13 66.85c-1.631-.967-2.96-1.995-4.048-3.083C1.088 61.712.06 59.355 0 57.058V70.78c.06 3.566 2.477 7.072 7.13 9.791 2.9 1.693 6.345 2.841 9.97 3.506v-13.72c-3.625-.665-7.07-1.814-9.97-3.506zM38.129 73.257c1.631-.967 2.96-1.995 4.049-3.083 1.994-2.055 3.02-4.412 3.081-6.709v13.721c-.06 3.566-2.477 7.072-7.13 9.792-2.9 1.692-6.345 2.84-9.97 3.505v-13.72c3.625-.665 7.07-1.874 9.97-3.506z" fill="#57F7E0"/><path opacity=".5" d="M31.845 62.74v16.743c-4.714.906-9.85.906-14.563.06-3.565-.665-6.889-1.753-9.729-3.385-.725-.423-1.39-.846-1.994-1.33V58.148c.605.483 1.27.906 1.994 1.33 2.84 1.631 6.164 2.78 9.729 3.384 4.774.846 9.85.786 14.563-.12z" fill="#57F7E0"/><path opacity=".7" d="M19.217 66.246v6.588c2.84.363 5.8.423 8.64.182v-6.588c-2.9.241-5.8.18-8.64-.182z" fill="#6CFFE6"/><path opacity=".5" d="M41.695 47.085c-.484.484-.967.967-1.572 1.39-.362.242-.664.484-1.087.726-.242.12-.423.242-.665.423-2.236 1.33-4.955 2.236-7.795 2.78a47.52 47.52 0 01-4.23.544v15.353c1.45-.06 2.84-.242 4.23-.544 2.84-.544 5.499-1.45 7.795-2.78.604-.363 1.209-.726 1.692-1.149a8.895 8.895 0 001.571-1.39c1.39-1.39 2.175-2.962 2.417-4.533V42.552c-.181 1.572-.967 3.083-2.356 4.533z" fill="#57F7E0"/><g opacity=".7" fill="#6CFFE6"><path opacity=".5" d="M34.807 54.7v8.826c-.665.241-1.33.483-2.055.664v-8.824c.665-.181 1.39-.423 2.055-.665zM38.795 52.827v8.825c-.12.06-.242.12-.362.242-.544.302-1.148.604-1.692.906v-8.885a9.12 9.12 0 001.692-.907c.12 0 .241-.12.362-.18zM42.723 49.322v8.824c-.302.423-.604.846-1.027 1.21-.302.301-.665.664-1.027.966v-8.825c.362-.302.725-.664 1.027-.967.423-.362.725-.785 1.027-1.209z"/></g><path opacity=".5" d="M29.79 39.349v17.77a30.503 30.503 0 01-3.384.362 32.02 32.02 0 01-7.976-.483 10.53 10.53 0 01-1.33-.302v-17.71c.423.12.907.181 1.33.302 2.598.484 5.317.605 7.976.484 1.148-.121 2.296-.242 3.384-.423z" fill="#57F7E0"/><path opacity=".5" d="M41.452 28.77v14.447c-.786-.725-1.753-1.33-2.78-1.995-3.988-2.297-9.064-3.505-14.26-3.626V23.875c5.498 0 10.997 1.209 15.227 3.627.604.423 1.269.846 1.813 1.269zM17.947 31.007c-.484-.06-.967-.181-1.45-.302-2.055-.423-3.928-1.088-5.741-1.934-.544-.242-1.088-.544-1.632-.846-.241-.121-.483-.303-.725-.424-.241-.12-.423-.302-.664-.423-.182-.12-.302-.241-.484-.362h-.06a14.335 14.335 0 01-1.753-1.511C3.686 23.39 2.78 21.336 2.72 19.28l.06 15.534v.302c.122 2.116 1.028 4.17 2.84 5.984.484.544 1.088 1.028 1.753 1.511 0 0 0 .06.06.06.363.242.726.484 1.088.787.242.12.484.302.725.423.544.302 1.088.604 1.632.846 1.752.846 3.686 1.45 5.74 1.934.484.12.967.242 1.45.302 1.148.181 2.297.363 3.445.423l-.06-15.836c-1.21-.181-2.357-.302-3.505-.544z" fill="#57F7E0"/><path opacity=".7" d="M9.488 30.645c-1.57-.605-3.444.906-3.384 2.72.06 1.813.423 4.11 3.263 5.742 3.143 1.813 4.593-.665 4.472-2.78-.12-2.358-1.51-4.594-4.35-5.682z" fill="#6CFFE6"/><defs><linearGradient id="paint0_linear" x1="3.588" y1="97.567" x2="45.154" y2="97.567" gradientUnits="userSpaceOnUse"><stop stop-color="#6B99D1"/><stop offset=".021" stop-color="#6E9BD3"/><stop offset=".236" stop-color="#86B0E4"/><stop offset=".463" stop-color="#97BFF0"/><stop offset=".708" stop-color="#A2C8F8"/><stop offset="1" stop-color="#A5CBFA"/></linearGradient><linearGradient id="paint1_linear" x1="7.574" y1="90.2" x2="41.163" y2="90.2" gradientUnits="userSpaceOnUse"><stop stop-color="#A5CBFA"/><stop offset=".363" stop-color="#A8CDFA"/><stop offset=".667" stop-color="#B3D4FC"/><stop offset=".948" stop-color="#C4DFFE"/><stop offset="1" stop-color="#C8E2FF"/></linearGradient><linearGradient id="paint2_linear" x1="24.368" y1="95.556" x2="24.368" y2="-.578" gradientUnits="userSpaceOnUse"><stop stop-color="#57F7D7" stop-opacity=".7"/><stop offset=".904" stop-color="#57F7DF" stop-opacity=".067"/><stop offset="1" stop-color="#57F7E0" stop-opacity="0"/></linearGradient></defs></svg>