<svg width="91" height="24" viewBox="0 0 91 24" fill="none" xmlns="http://www.w3.org/2000/svg">
<path d="M0 0.213364H9.31404V2.58705H3.5599V3.6672H6.12241C7.4318 3.6672 8.4343 3.91168 9.12991 4.40064C9.83575 4.88071 10.1887 5.5786 10.1887 6.49429C10.1887 7.44554 9.78972 8.19231 8.99181 8.73461C8.1939 9.27692 7.08399 9.54807 5.66208 9.54807H0V0.213364ZM5.41657 7.34774C5.7746 7.34774 6.0508 7.28107 6.24516 7.14771C6.44976 7.01436 6.55205 6.82322 6.55205 6.5743C6.55205 6.09423 6.17356 5.85419 5.41657 5.85419H3.5599V7.34774H5.41657Z" fill="#050649"/>
<path d="M21.7099 0.213364L17.3981 7.24106C16.8867 8.07674 16.2575 8.71239 15.5108 9.14801C14.7742 9.58363 13.961 9.80144 13.071 9.80144C12.3856 9.80144 11.69 9.67697 10.9842 9.42805L11.8281 7.16105C12.2782 7.26773 12.6465 7.32107 12.9329 7.32107C13.1989 7.32107 13.4239 7.28107 13.6081 7.20105C13.8024 7.12104 13.9866 6.98769 14.1605 6.801L10.0482 0.213364H13.8689L16.0018 4.14727L18.2114 0.213364H21.7099Z" fill="#050649"/>
<path d="M27.6985 9.76143C26.563 9.76143 25.5401 9.55696 24.6297 9.14801C23.7192 8.73017 23.0032 8.1523 22.4814 7.41442C21.97 6.66764 21.7142 5.82308 21.7142 4.88072C21.7142 3.93835 21.97 3.09823 22.4814 2.36035C23.0032 1.61357 23.7192 1.03571 24.6297 0.626759C25.5401 0.20892 26.563 0 27.6985 0C28.7419 0 29.6728 0.160023 30.4912 0.480071C31.3096 0.800117 31.9847 1.26241 32.5167 1.86694L30.2304 3.64053C29.5654 2.91154 28.7829 2.54704 27.8827 2.54704C27.1257 2.54704 26.517 2.7604 26.0567 3.18713C25.5963 3.60497 25.3662 4.1695 25.3662 4.88072C25.3662 5.59193 25.5963 6.1609 26.0567 6.58763C26.517 7.00547 27.1257 7.21439 27.8827 7.21439C28.7829 7.21439 29.5654 6.84989 30.2304 6.1209L32.5167 7.89449C31.9847 8.49902 31.3096 8.96131 30.4912 9.28136C29.6728 9.60141 28.7419 9.76143 27.6985 9.76143Z" fill="#050649"/>
<path d="M42.6811 2.65372H39.5355V9.54807H35.9756V2.65372H32.83V0.213364H42.6811V2.65372Z" fill="#050649"/>
<path d="M43.8754 0.213364H47.4352V9.54807H43.8754V0.213364Z" fill="#050649"/>
<path d="M54.5158 0.213364C55.5081 0.213364 56.3725 0.355608 57.109 0.640094C57.8456 0.92458 58.4133 1.33353 58.8123 1.86694C59.2112 2.40035 59.4107 3.02267 59.4107 3.73388C59.4107 4.4451 59.2112 5.06741 58.8123 5.60082C58.4133 6.13423 57.8456 6.54318 57.109 6.82767C56.3725 7.11215 55.5081 7.2544 54.5158 7.2544H52.9661V9.54807H49.3448V0.213364H54.5158ZM54.2857 4.82737C54.7767 4.82737 55.145 4.73403 55.3905 4.54733C55.636 4.35175 55.7587 4.0806 55.7587 3.73388C55.7587 3.38716 55.636 3.12046 55.3905 2.93376C55.145 2.73818 54.7767 2.64039 54.2857 2.64039H52.9661V4.82737H54.2857Z" fill="#050649"/>
<path d="M66.1209 9.76143C64.9649 9.76143 63.9266 9.55251 63.006 9.13467C62.0853 8.71683 61.3641 8.13897 60.8424 7.40108C60.3207 6.65431 60.0598 5.81419 60.0598 4.88072C60.0598 3.94725 60.3207 3.11157 60.8424 2.37368C61.3641 1.6269 62.0853 1.0446 63.006 0.626759C63.9266 0.20892 64.9649 0 66.1209 0C67.2768 0 68.3151 0.20892 69.2358 0.626759C70.1564 1.0446 70.8776 1.6269 71.3993 2.37368C71.9211 3.11157 72.1819 3.94725 72.1819 4.88072C72.1819 5.81419 71.9211 6.65431 71.3993 7.40108C70.8776 8.13897 70.1564 8.71683 69.2358 9.13467C68.3151 9.55251 67.2768 9.76143 66.1209 9.76143ZM66.1209 7.21439C66.571 7.21439 66.975 7.12104 67.3331 6.93435C67.7013 6.73877 67.9929 6.46761 68.2077 6.1209C68.4225 5.76529 68.5299 5.3519 68.5299 4.88072C68.5299 4.40953 68.4225 4.00059 68.2077 3.65387C67.9929 3.29826 67.7013 3.02711 67.3331 2.84042C66.975 2.64483 66.571 2.54704 66.1209 2.54704C65.6708 2.54704 65.2616 2.64483 64.8933 2.84042C64.5353 3.02711 64.2489 3.29826 64.034 3.65387C63.8192 4.00059 63.7118 4.40953 63.7118 4.88072C63.7118 5.3519 63.8192 5.76529 64.034 6.1209C64.2489 6.46761 64.5353 6.73877 64.8933 6.93435C65.2616 7.12104 65.6708 7.21439 66.1209 7.21439Z" fill="#050649"/>
<path d="M73.4852 0.213364H77.0451V9.54807H73.4852V0.213364Z" fill="#050649"/>
<path d="M91 7.10771V11.375H87.6856V9.54807H81.5785V11.375H78.2642V7.10771H78.571C79.195 7.10771 79.6349 6.76544 79.8907 6.08089C80.1464 5.39635 80.3101 4.38731 80.3817 3.05378L80.5044 0.213364H89.5883V7.10771H91ZM83.5273 3.32049C83.4864 4.2184 83.4045 4.98295 83.2818 5.61416C83.159 6.23647 82.9698 6.73432 82.714 7.10771H86.0284V2.65372H83.558L83.5273 3.32049Z" fill="#050649"/>
<path d="M8.55748 14.6525C9.50687 14.6525 10.3613 14.8445 11.1208 15.2286C11.8804 15.6127 12.4759 16.1479 12.9074 16.8343C13.339 17.5126 13.5547 18.2807 13.5547 19.1387C13.5547 19.9968 13.339 20.769 12.9074 21.4554C12.4759 22.1337 11.8804 22.6648 11.1208 23.0489C10.3613 23.433 9.50687 23.625 8.55748 23.625C7.74618 23.625 7.00393 23.4861 6.33072 23.2082C5.65752 22.9222 5.0922 22.5259 4.63476 22.0193C4.17733 21.5126 3.8623 20.9283 3.68968 20.2664H3.00353V23.4289H0V14.8486H3.00353V17.8885H3.71558C3.90545 17.2429 4.22911 16.6791 4.68655 16.1969C5.14398 15.7066 5.70498 15.3266 6.36956 15.057C7.03413 14.7873 7.76344 14.6525 8.55748 14.6525ZM8.55748 21.2838C8.91134 21.2838 9.235 21.198 9.52845 21.0264C9.8219 20.8466 10.0506 20.5974 10.2146 20.2787C10.3872 19.9518 10.4735 19.5718 10.4735 19.1387C10.4735 18.7056 10.3872 18.3297 10.2146 18.011C10.0506 17.6842 9.8219 17.4349 9.52845 17.2633C9.235 17.0836 8.91134 16.9937 8.55748 16.9937C8.19498 16.9937 7.86701 17.0836 7.57356 17.2633C7.28011 17.4349 7.04708 17.6842 6.87446 18.011C6.71048 18.3297 6.62848 18.7056 6.62848 19.1387C6.62848 19.5718 6.71048 19.9518 6.87446 20.2787C7.04708 20.5974 7.28011 20.8466 7.57356 21.0264C7.86701 21.198 8.19498 21.2838 8.55748 21.2838Z" fill="url(#paint0_linear)"/>
<path d="M20.9964 19.0162L23.6763 23.4289H20.2326L18.4978 20.3277H17.6433V23.4289H14.588V14.8486H17.6433V18.0478H18.5755L20.5044 14.8486H23.6892L20.9964 19.0162Z" fill="url(#paint1_linear)"/>
<path d="M28.6751 14.8486C29.5122 14.8486 30.2416 14.9793 30.863 15.2408C31.4844 15.5023 31.9634 15.8782 32.3 16.3685C32.6366 16.8588 32.8049 17.4309 32.8049 18.0846C32.8049 18.7383 32.6366 19.3103 32.3 19.8006C31.9634 20.2909 31.4844 20.6668 30.863 20.9283C30.2416 21.1898 29.5122 21.3206 28.6751 21.3206H27.3675V23.4289H24.3122V14.8486H28.6751ZM28.4809 19.0897C28.8951 19.0897 29.2058 19.0039 29.413 18.8323C29.6201 18.6525 29.7237 18.4033 29.7237 18.0846C29.7237 17.7659 29.6201 17.5207 29.413 17.3491C29.2058 17.1694 28.8951 17.0795 28.4809 17.0795H27.3675V19.0897H28.4809Z" fill="url(#paint2_linear)"/>
<path d="M41.2658 21.247V23.4289H33.7311V14.8486H41.0975V17.0304H36.7346V18.0356H40.5667V20.1193H36.7346V21.247H41.2658Z" fill="url(#paint3_linear)"/>
<path d="M42.5052 14.8486H45.5087V19.3103L48.6288 14.8486H51.5028V23.4289H48.4993V18.9794L45.3922 23.4289H42.5052V14.8486ZM46.9976 14.3583C45.9964 14.3583 45.2757 14.1826 44.8355 13.8312C44.3954 13.4798 44.1753 12.9528 44.1753 12.25H46.2078C46.2078 12.5278 46.2639 12.728 46.3761 12.8506C46.497 12.9732 46.7041 13.0345 46.9976 13.0345C47.291 13.0345 47.4981 12.9732 47.619 12.8506C47.7484 12.728 47.8132 12.5278 47.8132 12.25H49.8457C49.8457 12.9528 49.6213 13.4798 49.1725 13.8312C48.7237 14.1826 47.9987 14.3583 46.9976 14.3583Z" fill="url(#paint4_linear)"/>
<path d="M62.0455 14.8486V23.4289H58.9901V20.2664H56.1679V23.4289H53.1125V14.8486H56.1679V17.8885H58.9901V14.8486H62.0455Z" fill="url(#paint5_linear)"/>
<defs>
<linearGradient id="paint0_linear" x1="62.0454" y1="17.9375" x2="52.5824" y2="40.2442" gradientUnits="userSpaceOnUse">
<stop offset="3.09823e-07" stop-color="#0452F0"/>
<stop offset="1" stop-color="#02D1BF"/>
</linearGradient>
<linearGradient id="paint1_linear" x1="62.0454" y1="17.9375" x2="52.5824" y2="40.2442" gradientUnits="userSpaceOnUse">
<stop offset="3.09823e-07" stop-color="#0452F0"/>
<stop offset="1" stop-color="#02D1BF"/>
</linearGradient>
<linearGradient id="paint2_linear" x1="62.0454" y1="17.9375" x2="52.5824" y2="40.2442" gradientUnits="userSpaceOnUse">
<stop offset="3.09823e-07" stop-color="#0452F0"/>
<stop offset="1" stop-color="#02D1BF"/>
</linearGradient>
<linearGradient id="paint3_linear" x1="62.0454" y1="17.9375" x2="52.5824" y2="40.2442" gradientUnits="userSpaceOnUse">
<stop offset="3.09823e-07" stop-color="#0452F0"/>
<stop offset="1" stop-color="#02D1BF"/>
</linearGradient>
<linearGradient id="paint4_linear" x1="62.0454" y1="17.9375" x2="52.5824" y2="40.2442" gradientUnits="userSpaceOnUse">
<stop offset="3.09823e-07" stop-color="#0452F0"/>
<stop offset="1" stop-color="#02D1BF"/>
</linearGradient>
<linearGradient id="paint5_linear" x1="62.0454" y1="17.9375" x2="52.5824" y2="40.2442" gradientUnits="userSpaceOnUse">
<stop offset="3.09823e-07" stop-color="#0452F0"/>
<stop offset="1" stop-color="#02D1BF"/>
</linearGradient>
</defs>
</svg>
