<svg width="160" height="14" viewBox="0 0 160 14" fill="none" xmlns="http://www.w3.org/2000/svg">
<path d="M0 3.20633H9.00699V5.50176H3.44254V6.54631H5.92057C7.18679 6.54631 8.15624 6.78273 8.82892 7.25557C9.5115 7.71981 9.85278 8.39469 9.85278 9.28019C9.85278 10.2001 9.46698 10.9222 8.69538 11.4467C7.92377 11.9711 6.85045 12.2333 5.47542 12.2333H0V3.20633ZM5.238 10.1055C5.58423 10.1055 5.85133 10.041 6.03928 9.91207C6.23713 9.78312 6.33605 9.59828 6.33605 9.35756C6.33605 8.89332 5.97003 8.6612 5.238 8.6612H3.44254V10.1055H5.238Z" fill="#050649"/>
<path d="M20.9942 3.20633L16.8246 10.0023C16.33 10.8105 15.7216 11.4252 14.9994 11.8464C14.2872 12.2677 13.5007 12.4783 12.6401 12.4783C11.9773 12.4783 11.3046 12.358 10.6221 12.1172L11.4382 9.92497C11.8734 10.0281 12.2296 10.0797 12.5066 10.0797C12.7638 10.0797 12.9814 10.041 13.1595 9.96366C13.3474 9.88628 13.5255 9.75733 13.6936 9.57679L9.71692 3.20633H13.4117L15.4743 7.01055L17.611 3.20633H20.9942Z" fill="#050649"/>
<path d="M26.7854 12.4396C25.6873 12.4396 24.6981 12.2419 23.8177 11.8464C22.9373 11.4424 22.2448 10.8835 21.7403 10.17C21.2457 9.44783 20.9984 8.63111 20.9984 7.71981C20.9984 6.80852 21.2457 5.99609 21.7403 5.28253C22.2448 4.56038 22.9373 4.00156 23.8177 3.6061C24.6981 3.20203 25.6873 3 26.7854 3C27.7944 3 28.6946 3.15475 29.486 3.46424C30.2774 3.77374 30.9303 4.22079 31.4447 4.80539L29.2338 6.52052C28.5907 5.81555 27.834 5.46307 26.9635 5.46307C26.2314 5.46307 25.6428 5.6694 25.1977 6.08206C24.7525 6.48613 24.5299 7.03204 24.5299 7.71981C24.5299 8.40758 24.7525 8.9578 25.1977 9.37046C25.6428 9.77452 26.2314 9.97655 26.9635 9.97655C27.834 9.97655 28.5907 9.62407 29.2338 8.91911L31.4447 10.6342C30.9303 11.2188 30.2774 11.6659 29.486 11.9754C28.6946 12.2849 27.7944 12.4396 26.7854 12.4396Z" fill="#050649"/>
<path d="M41.2741 5.56624H38.2322V12.2333H34.7896V5.56624H31.7477V3.20633H41.2741V5.56624Z" fill="#050649"/>
<path d="M42.4289 3.20633H45.8714V12.2333H42.4289V3.20633Z" fill="#050649"/>
<path d="M52.7186 3.20633C53.6782 3.20633 54.5141 3.34388 55.2263 3.61899C55.9386 3.8941 56.4876 4.28957 56.8734 4.80539C57.2592 5.32122 57.4521 5.92302 57.4521 6.61079C57.4521 7.29855 57.2592 7.90035 56.8734 8.41618C56.4876 8.932 55.9386 9.32747 55.2263 9.60258C54.5141 9.87769 53.6782 10.0152 52.7186 10.0152H51.2199V12.2333H47.718V3.20633H52.7186ZM52.496 7.66823C52.9709 7.66823 53.327 7.57796 53.5644 7.39742C53.8018 7.20828 53.9205 6.94607 53.9205 6.61079C53.9205 6.2755 53.8018 6.01759 53.5644 5.83705C53.327 5.64791 52.9709 5.55334 52.496 5.55334H51.2199V7.66823H52.496Z" fill="#050649"/>
<path d="M63.9411 12.4396C62.8232 12.4396 61.8192 12.2376 60.9288 11.8335C60.0385 11.4295 59.3411 10.8707 58.8366 10.1571C58.3321 9.43493 58.0798 8.62251 58.0798 7.71981C58.0798 6.81712 58.3321 6.00899 58.8366 5.29543C59.3411 4.57327 60.0385 4.01016 60.9288 3.6061C61.8192 3.20203 62.8232 3 63.9411 3C65.0589 3 66.063 3.20203 66.9533 3.6061C67.8436 4.01016 68.541 4.57327 69.0455 5.29543C69.55 6.00899 69.8023 6.81712 69.8023 7.71981C69.8023 8.62251 69.55 9.43493 69.0455 10.1571C68.541 10.8707 67.8436 11.4295 66.9533 11.8335C66.063 12.2376 65.0589 12.4396 63.9411 12.4396ZM63.9411 9.97655C64.3763 9.97655 64.7671 9.88628 65.1133 9.70574C65.4694 9.51661 65.7514 9.2544 65.9591 8.91911C66.1668 8.57522 66.2707 8.17546 66.2707 7.71981C66.2707 7.26417 66.1668 6.8687 65.9591 6.53341C65.7514 6.18953 65.4694 5.92732 65.1133 5.74678C64.7671 5.55764 64.3763 5.46307 63.9411 5.46307C63.5058 5.46307 63.1101 5.55764 62.754 5.74678C62.4078 5.92732 62.1308 6.18953 61.923 6.53341C61.7153 6.8687 61.6114 7.26417 61.6114 7.71981C61.6114 8.17546 61.7153 8.57522 61.923 8.91911C62.1308 9.2544 62.4078 9.51661 62.754 9.70574C63.1101 9.88628 63.5058 9.97655 63.9411 9.97655Z" fill="#050649"/>
<path d="M71.0626 3.20633H74.5052V12.2333H71.0626V3.20633Z" fill="#050649"/>
<path d="M88 9.87339V14H84.7949V12.2333H78.8891V14H75.684V9.87339H75.9808C76.5842 9.87339 77.0096 9.5424 77.2569 8.88042C77.5042 8.21844 77.6625 7.24267 77.7317 5.95311L77.8504 3.20633H86.6348V9.87339H88ZM80.7736 6.21102C80.7341 7.07933 80.6549 7.81868 80.5362 8.42907C80.4175 9.03087 80.2345 9.51231 79.9872 9.87339H83.1923V5.56624H80.8033L80.7736 6.21102Z" fill="#050649"/>
<path d="M99.6546 2.74569C100.726 2.74569 101.69 2.96516 102.547 3.40409C103.403 3.84303 104.075 4.45474 104.562 5.23922C105.049 6.01437 105.293 6.89224 105.293 7.87285C105.293 8.85345 105.049 9.73599 104.562 10.5205C104.075 11.2956 103.403 11.9027 102.547 12.3416C101.69 12.7805 100.726 13 99.6546 13C98.7393 13 97.9019 12.8412 97.1424 12.5237C96.3828 12.1968 95.745 11.7439 95.229 11.1649C94.7129 10.5858 94.3575 9.9181 94.1627 9.16164H93.3886V12.7759H90V2.96983H93.3886V6.44397H94.1919C94.4062 5.70618 94.7713 5.06178 95.2874 4.51078C95.8035 3.95043 96.4364 3.51616 97.1862 3.20797C97.9359 2.89978 98.7588 2.74569 99.6546 2.74569ZM99.6546 10.3244C100.054 10.3244 100.419 10.2263 100.75 10.0302C101.081 9.82471 101.339 9.53987 101.524 9.17565C101.719 8.80208 101.816 8.36782 101.816 7.87285C101.816 7.37787 101.719 6.94828 101.524 6.58405C101.339 6.21049 101.081 5.92565 100.75 5.72953C100.419 5.52407 100.054 5.42134 99.6546 5.42134C99.2456 5.42134 98.8756 5.52407 98.5445 5.72953C98.2135 5.92565 97.9506 6.21049 97.7558 6.58405C97.5708 6.94828 97.4783 7.37787 97.4783 7.87285C97.4783 8.36782 97.5708 8.80208 97.7558 9.17565C97.9506 9.53987 98.2135 9.82471 98.5445 10.0302C98.8756 10.2263 99.2456 10.3244 99.6546 10.3244Z" fill="url(#paint0_linear)"/>
<path d="M113.688 7.73276L116.712 12.7759H112.826L110.869 9.23168H109.905V12.7759H106.458V2.96983H109.905V6.62608H110.957L113.133 2.96983H116.726L113.688 7.73276Z" fill="url(#paint1_linear)"/>
<path d="M122.351 2.96983C123.296 2.96983 124.119 3.11925 124.82 3.4181C125.521 3.71695 126.061 4.14655 126.441 4.7069C126.821 5.26724 127.011 5.92098 127.011 6.6681C127.011 7.41523 126.821 8.06897 126.441 8.62931C126.061 9.18966 125.521 9.61925 124.82 9.9181C124.119 10.217 123.296 10.3664 122.351 10.3664H120.876V12.7759H117.429V2.96983H122.351ZM122.132 7.81681C122.6 7.81681 122.95 7.71875 123.184 7.52263C123.418 7.31717 123.534 7.03233 123.534 6.6681C123.534 6.30388 123.418 6.02371 123.184 5.82759C122.95 5.62213 122.6 5.5194 122.132 5.5194H120.876V7.81681H122.132Z" fill="url(#paint2_linear)"/>
<path d="M136.556 10.2823V12.7759H128.056V2.96983H136.366V5.46336H131.444V6.61207H135.768V8.99353H131.444V10.2823H136.556Z" fill="url(#paint3_linear)"/>
<path d="M137.955 2.96983H141.343V8.06896L144.863 2.96983H148.106V12.7759H144.717V7.69073L141.212 12.7759H137.955V2.96983ZM143.023 2.40948C141.893 2.40948 141.08 2.20869 140.584 1.80711C140.087 1.40553 139.839 0.803161 139.839 0H142.132C142.132 0.317529 142.195 0.546337 142.322 0.686423C142.458 0.826509 142.692 0.896552 143.023 0.896552C143.354 0.896552 143.588 0.826509 143.724 0.686423C143.87 0.546337 143.943 0.317529 143.943 0H146.236C146.236 0.803161 145.983 1.40553 145.477 1.80711C144.97 2.20869 144.152 2.40948 143.023 2.40948Z" fill="url(#paint4_linear)"/>
<path d="M160 2.96983V12.7759H156.553V9.16164H153.369V12.7759H149.922V2.96983H153.369V6.44397H156.553V2.96983H160Z" fill="url(#paint5_linear)"/>
<defs>
<linearGradient id="paint0_linear" x1="160" y1="6.5" x2="149.088" y2="31.8922" gradientUnits="userSpaceOnUse">
<stop offset="3.09823e-07" stop-color="#0452F0"/>
<stop offset="1" stop-color="#02D1BF"/>
</linearGradient>
<linearGradient id="paint1_linear" x1="160" y1="6.5" x2="149.088" y2="31.8922" gradientUnits="userSpaceOnUse">
<stop offset="3.09823e-07" stop-color="#0452F0"/>
<stop offset="1" stop-color="#02D1BF"/>
</linearGradient>
<linearGradient id="paint2_linear" x1="160" y1="6.5" x2="149.088" y2="31.8922" gradientUnits="userSpaceOnUse">
<stop offset="3.09823e-07" stop-color="#0452F0"/>
<stop offset="1" stop-color="#02D1BF"/>
</linearGradient>
<linearGradient id="paint3_linear" x1="160" y1="6.5" x2="149.088" y2="31.8922" gradientUnits="userSpaceOnUse">
<stop offset="3.09823e-07" stop-color="#0452F0"/>
<stop offset="1" stop-color="#02D1BF"/>
</linearGradient>
<linearGradient id="paint4_linear" x1="160" y1="6.5" x2="149.088" y2="31.8922" gradientUnits="userSpaceOnUse">
<stop offset="3.09823e-07" stop-color="#0452F0"/>
<stop offset="1" stop-color="#02D1BF"/>
</linearGradient>
<linearGradient id="paint5_linear" x1="160" y1="6.5" x2="149.088" y2="31.8922" gradientUnits="userSpaceOnUse">
<stop offset="3.09823e-07" stop-color="#0452F0"/>
<stop offset="1" stop-color="#02D1BF"/>
</linearGradient>
</defs>
</svg>
