<svg width="71" height="109" fill="none" xmlns="http://www.w3.org/2000/svg"><path d="M27.942 35.1c-.601.066-1.136-.134-1.939 0-.735.133-1.203.133-1.871.066-.669-.067-2.541-1.47-4.012-2.808-1.738-1.537-3.343-3.944-3.81-5.148-.803-2.072-2.006-6.35-2.541-7.822-.535-1.47-1.27-1.738-2.206-1.872-1.07-.133-1.739.268-1.204 2.407.535 2.14 1.739 6.285 3.276 8.959.736 1.27 2.073 3.209 4.279 5.281 1.538 1.404 3.008 2.207 4.88 3.276.535.268.803.602 1.672 1.27.869.67 2.072 1.137 3.008 1.27.936.068 1.27 0 1.337-.2.134-.2-.066-.4-.468-.468-.4-.067-1.136-.133-1.938-.601 0 0 .869.267 1.47.334.535.067 1.07.067 1.471.067.468-.067.803-.669.401-.803-.334-.2-.668-.2-1.47-.334-.736-.134-1.27-.401-1.27-.401s.868.134 1.67.067c.736-.067 1.07-.2 1.271-.334.2-.134.267-.535-.267-.602-.468-.067-1.137.067-2.006-.134-.669-.2-1.07-.401-1.003-.468.134-.067.468.067 1.07-.067.535-.133 1.003-.601.936-.869-.067-.334-.134-.133-.736-.067z" fill="#FFA8A7"/><path d="M14.236 20.123c-.334-1.203-.669-1.738-1.337-2.273-.736-.468-1.337-.468-1.337-.468l-1.538 6.82 1.538 3.476c2.406.602 4.412-1.939 4.412-1.939s-1.404-4.546-1.738-5.616z" fill="#E4F2F2"/><path d="M6.15 70.934s-.134.602-.334 1.003c-.2.468-.401 1.203-.401 1.671 0 .401.869 1.07 1.47 1.27.602.201 1.471 1.003 1.739 1.471.4.736 1.671 1.404 2.54 1.404.87 0 1.872 0 2.14-.334.267-.334 0-.735-1.605-2.273-1.604-1.538-2.674-2.54-3.075-3.81l-2.474-.402zM1.803 75.68c-.2.469-.535.736-.468 2.073.134 1.27 0 1.805-.134 2.875s.401 2.474.936 3.142c.535.669 1.872.803 2.34-.4.468-1.204.535-2.207.268-3.41-.335-1.204.133-2.14-.134-2.942-.2-.802-.468-1.337-.468-1.337h-2.34z" fill="#2D2979"/><path d="M1.804 42.453c.067 1.337.468 7.22.669 10.296.133 3.142.468 6.752.468 6.752s-.803 2.474-1.137 5.081c-.334 2.675 0 11.032 0 11.032s1.003.735 2.273 0c0 0 1.605-7.421 2.273-10.43.669-3.008 1.337-4.48 1.471-6.351.134-1.872.802-12.502.802-12.502h.335l.869 9.627S8.69 57.83 8.155 59.702C7.687 61.574 6.15 70.733 6.15 70.733s1.07 1.204 2.473.401c0 0 5.349-12.301 5.884-13.505.468-1.203-.2-18.519-.2-18.519L1.803 42.453z" fill="#7FA8E6"/><path d="M8.621 46.398s2.407-.936 3.544-1.739c0 0-.602.936-2.14 1.739-.133 1.27-.133 9.694-.133 9.694l-.87-9.627-.4-.067z" fill="#597BC6"/><path d="M5.013 16.313s.134 2.941.067 3.209c-.067.267-1.337 1.136-1.738 1.404-.401.334 2.006 2.674 3.21 3.209 1.203.534 4.88-.87 4.947-2.675.066-1.805-.67-3.342-1.204-3.41-.535-.066-5.282-1.738-5.282-1.738z" fill="#FFA8A7"/><path d="M5.011 16.313l.067 2.072s1.872 1.805 3.41 1.538c.802-.134.735-.669.735-.669v-1.738l-4.212-1.203z" fill="#F28F8F"/><path d="M4.678 19.99s2.14 3.208 5.148 3.476c.936-.936 1.003-4.212-.268-5.282 0 0 1.204-.936 2.006-.802 0 0 1.27.668 1.872 2.34.535 1.671 1.07 3.677 1.07 6.82-.067 3.141 0 12.702 0 12.702s-.468 2.005-3.143 3.543c-2.674 1.471-4.68 1.672-6.551 1.204-1.538-.335-2.742-.87-3.276-2.006.133-2.14 1.136-7.89.735-10.63-.334-2.741-.936-4.814-1.07-7.02-.133-2.206.268-2.206 1.404-3.009 1.471-1.07 2.073-1.337 2.073-1.337z" fill="#F5FBFB"/><path d="M9.825 23.466s.268-1.404.268-2.206c-.067-1.003-.802-2.34-.802-2.34v-.802s.601.067 1.07.735c.534.602 1.27 1.939 1.069 3.276 0-.067-.401.669-1.604 1.337z" fill="#E4F2F2"/><path d="M9.826 23.466c.2-.401.602-1.805.802-2.073.401-.133.736.669.736.669s0 .802-.535 1.27c-.401.468-1.003.134-1.003.134z" fill="#F5FBFB"/><path d="M10.628 21.394c-.2.2-.601 1.605-.802 2.073 0 0 .2-.402.468-.67.2-.267.468-.801 1.136-.735 0 0-.4-.735-.802-.668z" fill="#C8DBDA"/><path d="M11.697 11.967C11.363 9.694 9.69 7.956 7.35 8.089c-2.54.134-4.412 2.273-4.279 4.814a4.39 4.39 0 002.006 3.476s.2.803.334 1.003c.803 1.003 3.343 1.605 4.079 1.471.936-.134 1.404-.535 1.872-1.538.802-1.805.534-4.212.334-5.348z" fill="#FFA8A7"/><path d="M11.363 10.095c-1.003-1.47-2.741-2.34-4.68-1.939-1.204.268-2.206 1.003-2.875 1.94-1.003.334-1.07 1.069-.936 2.272.134 1.27.401 2.474 1.003 3.544.134.4.802.2 1.136.4-.066-.133-1.27-1.938 0-2.34.201.201.268.603.268.937 0 0 .602-.067.468-.736-.067-.2-.067-.4-.134-.534-.134-.535 0-1.137.334-1.605.268-.401.468-.87.335-1.47 0 0 1.537.668 3.476.267.803-.134 1.404-.468 1.605-.736z" fill="#543354"/><path d="M3.81 10.095s-.268-.87.868-1.805c1.404-1.07 3.343-.803 5.349 0 1.337.535 3.343-.134 2.942 1.404-.602 2.206-4.814 2.406-6.686.869-.134 0-1.47-.669-2.474-.468z" fill="#543354"/><path d="M5.012 16.312s-.133.268-.534.268c-.803.067-1.806-1.471-1.137-2.54.401-.67 1.337-.402 1.671-.068v2.34z" fill="#FFA8A7"/><path d="M5.145 18.987c.067.468 2.474 2.206 3.009 2.473.602.201 1.671 2.073 1.671 2.073-.869-.134-1.537.2-2.206.87 0 0-3.41-1.405-3.944-3.745 0 0 .601-1.203.735-1.538.067-.334.334-.668.735-.668v.535z" fill="#E4F2F2"/><path d="M7.618 24.335s.268-1.738.602-1.939c.334-.133 1.538 1.07 1.538 1.07-.401.401-1.07.802-2.14.87z" fill="#F5FBFB"/><path d="M8.288 22.396c-.334.134-.602 1.94-.602 1.94s.936-.87 1.27-.937c.268-.067.937.134.937.134s-1.27-1.27-1.605-1.137z" fill="#C8DBDA"/><path opacity=".15" d="M70.264 89.319L38.44 107.704c-.468.268-1.136.401-1.738.401-.602 0-1.27-.133-1.738-.401L3.14 89.319c-.468-.267-.736-.669-.736-1.003 0-.267.134-.535.401-.735.067-.067.2-.2.335-.268l31.823-18.385c.936-.535 2.54-.535 3.476 0l31.824 18.385c.936.535.936 1.471 0 2.006z" fill="#6B99D1"/><path d="M70.264 68.06L38.44 86.444c-.468.267-1.136.4-1.738.4-.602 0-1.27-.133-1.738-.4L3.14 68.059c-.468-.267-.736-.668-.736-1.003 0-.4.268-.735.736-1.002l5.08-2.942 26.743-15.444c.936-.535 2.54-.535 3.476 0l31.824 18.386c.936.534.936 1.403 0 2.005z" fill="#DCEEFF"/><path d="M36.702 79.558v7.22c-.602 0-1.27-.133-1.738-.4L3.14 68.057c-.468-.267-.736-.668-.736-1.002v-6.284c0-.268.134-.535.401-.736l5.416 3.142 28.48 16.38z" fill="#A5CBFA"/><path d="M36.703 79.558v7.22c.602 0 1.27-.133 1.738-.4l31.823-18.386c.469-.267.736-.668.736-1.002v-6.285c0-.267-.134-.535-.401-.735l-5.416 3.142-28.48 16.446z" fill="#C8E2FF"/><path d="M70.263 61.775L38.44 80.16c-.468.268-1.136.401-1.738.401-.602 0-1.27-.133-1.738-.4L3.14 61.774c-.468-.268-.735-.669-.735-1.003 0-.267.134-.535.401-.735.067-.067.2-.201.334-.268l31.824-18.385c.936-.535 2.54-.535 3.476 0l31.823 18.385c.936.535.936 1.471 0 2.006z" fill="#DCEEFF"/><path d="M36.702 41.651c.535 0 1.07.134 1.404.334l31.823 18.386c.268.134.401.334.401.401s-.067.267-.4.401L38.105 79.558c-.334.201-.87.335-1.404.335-.535 0-1.07-.134-1.404-.335L3.475 61.173c-.268-.134-.402-.267-.402-.401 0-.067.067-.2.134-.267s.134-.134.2-.134l31.824-18.386c.401-.267.936-.334 1.47-.334zm0-.668c-.602 0-1.27.133-1.738.4L3.14 59.77c-.133.067-.267.134-.334.268-.267.2-.401.468-.401.735 0 .334.267.735.735 1.003L34.964 80.16c.468.268 1.136.401 1.738.401.602 0 1.27-.133 1.738-.4l31.823-18.386c.936-.535.936-1.471 0-2.006L38.44 41.384c-.468-.268-1.136-.401-1.738-.401z" fill="#fff"/><path d="M35.567 45.73l-24.87 14.373c-.67.401-.67.936 0 1.337l24.87 14.374c.668.402 1.671.402 2.34 0l24.87-14.374c.669-.4.669-.936 0-1.337L37.84 45.73c-.602-.334-1.672-.334-2.273 0z" fill="#344593"/><path d="M62.71 60.103L37.84 45.73c-.335-.2-.736-.267-1.137-.267v1.203l25.806 14.842.2-.133c.602-.335.602-.936 0-1.27z" fill="#1E3779"/><path d="M36.703 45.462c-.401 0-.869.067-1.136.267l-24.87 14.374c-.67.401-.67.936 0 1.337l.2.134 25.806-14.909v-1.203z" fill="#031F60"/><path d="M28.547 52.884l8.156 4.747V32.56l-8.156-4.747v25.07z" fill="#57F7E0"/><path d="M36.703 57.63l8.156-4.746V27.813l-8.156 4.747v25.07z" fill="#6CFFE6"/><path d="M44.86 27.813l-8.155-4.68-8.157 4.68 8.157 4.747 8.156-4.747z" fill="#ABFFEF"/><path d="M36.702 57.63c-.267-.267-.267-.534-.267-.802V51.346l.067-6.284.067-6.285.133-6.284.134 6.284.067 6.285v11.766c.067.268.067.535-.2.802zM44.86 27.813c.067.267-.067.334-.134.334l-.267.134-.535.267-1.003.602c-.669.4-1.337.802-2.073 1.136-1.404.736-2.74 1.471-4.145 2.207 1.337-.87 2.608-1.672 3.945-2.54l2.005-1.204 1.003-.602.535-.267.268-.134c.066-.067.2-.067.4.067z" fill="#fff"/><path d="M42.12 60.771l8.156 4.68V43.523l-8.157-4.747V60.77z" fill="#57F7E0"/><path d="M50.275 65.451l8.156-4.68V38.776l-8.156 4.747V65.45z" fill="#6CFFE6"/><path d="M58.432 38.776l-8.157-4.68-8.156 4.68 8.156 4.747 8.157-4.747z" fill="#ABFFEF"/><path d="M50.278 65.451c-.267-.2-.267-.468-.267-.668V59.97l.067-5.483c.067-3.677.067-7.287.2-10.964.134 3.677.134 7.287.2 10.964V64.783c.068.2.068.468-.2.668zM58.433 38.776c.067.267-.067.334-.134.334l-.267.134-.535.267-1.003.602c-.668.401-1.337.802-2.072 1.137-1.404.735-2.741 1.47-4.145 2.206 1.337-.87 2.607-1.671 3.944-2.54l2.006-1.204 1.003-.602.535-.267.267-.134c.067-.067.2-.067.401.067z" fill="#fff"/><path d="M14.974 60.772l8.156 4.68v-25.07l-8.156-4.68v25.07z" fill="#57F7E0"/><path d="M23.13 65.452l8.156-4.68v-25.07l-8.157 4.68v25.07z" fill="#6CFFE6"/><path d="M31.287 35.701l-8.157-4.747-8.156 4.747 8.156 4.68 8.157-4.68z" fill="#ABFFEF"/><path d="M23.133 65.452c-.268-.268-.268-.535-.268-.802V59.166l.067-6.284.067-6.285.134-6.284.133 6.284.067 6.285V64.65c.067.267.067.534-.2.802z" fill="#fff"/><path d="M31.286 35.701c.066.267-.067.334-.134.334l-.268.134-.534.268-1.003.601c-.669.401-1.337.803-2.073 1.137-1.404.735-2.74 1.47-4.145 2.206 1.337-.87 2.607-1.671 3.945-2.54l2.005-1.204 1.003-.602.535-.267.267-.134c.067-.067.134-.133.402.067z" fill="#fff"/><path d="M28.547 68.594l8.156 4.68V54.488l-8.156-4.68v18.786z" fill="#57F7E0"/><path d="M36.703 73.274l8.156-4.68V49.808l-8.156 4.68v18.786z" fill="#6CFFE6"/><path d="M44.86 49.808l-8.155-4.747-8.157 4.747 8.157 4.68 8.156-4.68z" fill="#ABFFEF"/><path d="M36.702 73.274c-.267-.2-.267-.401-.267-.602v-4.145c0-1.537 0-3.142.067-4.68.067-3.142.067-6.284.2-9.426.134 3.142.134 6.284.2 9.426v8.825c.068.268.068.401-.2.602z" fill="#fff"/><path d="M44.86 49.808c.067.267-.067.334-.134.334l-.267.134-.535.267-1.003.602c-.669.401-1.337.802-2.073 1.137-1.404.735-2.74 1.47-4.145 2.206 1.337-.87 2.608-1.672 3.945-2.54l2.005-1.204 1.003-.602.535-.267.268-.134c.066-.067.2-.133.4.067z" fill="#fff"/><path opacity=".3" d="M38.443 14.307a2.599 2.599 0 01-1.738.401v61.374c.4 0 .802-.067 1.136-.267l24.67-14.308c.468-.267.668-.468.668-.802V0L38.443 14.307z" fill="url(#paint0_linear)"/><path opacity=".5" d="M36.703 14.708h-.468c-.133 0-.267-.067-.4-.067-.068 0-.201-.066-.268-.066s-.134 0-.134-.067l-.401-.2L10.229 0v60.772c0 .267.2.468.468.669l24.87 14.373c.401.201.735.268 1.136.268V14.708z" fill="url(#paint1_linear)"/><path d="M17.113 40.916c-.601 0-1.07-.2-1.938-.134-.736.067-1.003.067-1.672-.134-.668-.2-2.34-1.604-3.744-3.008-1.671-1.672-3.075-4.346-3.543-5.55-.936-2.473-1.738-6.284-2.206-7.754-.468-1.471-1.204-1.805-2.073-2.006-1.07-.2-1.939.535-1.537 2.741.4 2.206 1.47 6.017 2.807 8.758.602 1.337 1.806 3.41 3.878 5.55 1.47 1.537 2.875 2.406 4.613 3.61.468.334.736.668 1.605 1.403.869.736 2.005 1.337 2.874 1.471.936.134 1.27.067 1.404-.133.134-.201 0-.402-.4-.535-.402-.134-1.137-.268-1.873-.736 0 0 .87.268 1.404.401.535.134 1.07.2 1.471.134.468 0 .87-.602.468-.735-.401-.134-.735-.134-1.538-.335-.735-.2-1.203-.468-1.203-.468s.87.2 1.671.2c.736 0 1.07-.133 1.27-.267.201-.133.335-.534-.2-.601-.468-.067-1.136 0-2.006-.268-.668-.2-1.07-.468-.935-.535.133-.066.467.067 1.07 0 .534-.066 1.069-.467 1.002-.802-.067-.334-.067-.267-.669-.267z" fill="#FFA8A7"/><path d="M1.337 22.263c-1.07.468-1.605 1.671-1.204 3.81.401 2.14 1.337 5.35 1.337 5.35s2.073.066 4.145-1.672c0 0-1.002-4.613-1.404-5.817-.4-1.27-1.404-2.34-2.874-1.67z" fill="#E4F2F2"/><defs><linearGradient id="paint0_linear" x1="63.197" y1="61.378" x2="42.066" y2="24.159" gradientUnits="userSpaceOnUse"><stop stop-color="#57F7E0"/><stop offset=".078" stop-color="#57F7E0" stop-opacity=".922"/><stop offset="1" stop-color="#57F7E0" stop-opacity="0"/></linearGradient><linearGradient id="paint1_linear" x1="10.234" y1="61.537" x2="27.181" y2="31.397" gradientUnits="userSpaceOnUse"><stop stop-color="#57F7E0"/><stop offset=".078" stop-color="#57F7E0" stop-opacity=".922"/><stop offset="1" stop-color="#57F7E0" stop-opacity="0"/></linearGradient></defs></svg>